<?xml version="1.0" encoding="UTF-8"?>
<svg version="1.1" xmlns="http://www.w3.org/2000/svg" width="3007" height="1969">
<path d="M0 0 C1.39760364 0.18423428 2.79522805 0.36831098 4.19287109 0.55224609 C21.63486672 2.87749322 38.88163109 5.8983517 56 10 C56.83708496 10.19561523 57.67416992 10.39123047 58.53662109 10.59277344 C71.15513237 13.54766347 83.52201977 17.17750294 95.890625 21.03662109 C99.18299365 22.056697 102.48126624 23.0556299 105.78125 24.05078125 C120.10248822 28.38064733 133.87403812 32.94812896 147.42578125 39.33984375 C150.03795497 40.55314848 152.65237881 41.73105201 155.29296875 42.87890625 C163.928239 46.63518845 172.3111362 50.62785098 180.57421875 55.14453125 C183.58321118 56.77425919 186.61291257 58.31175733 189.6875 59.8125 C203.61169863 66.72762159 217.07676294 74.36310368 230 83 C230.96550781 83.63164062 231.93101562 84.26328125 232.92578125 84.9140625 C238.98378276 88.89807973 244.94121583 93.02168673 250.875 97.1875 C251.94584839 97.93640503 251.94584839 97.93640503 253.03833008 98.70043945 C256.14893599 100.89631169 259.19299925 103.11052806 262.09765625 105.57421875 C265.13539566 108.11316381 268.31168821 110.37447353 271.5625 112.625 C278.74277299 117.67895481 285.40195722 123.21587791 292 129 C292.5067627 129.43828125 293.01352539 129.8765625 293.53564453 130.328125 C299.83414818 135.7754795 299.83414818 135.7754795 302 138 C302 138.66 302 139.32 302 140 C302.5465625 140.22816406 303.093125 140.45632812 303.65625 140.69140625 C306.69505068 142.38806996 308.96006164 144.56154118 311.5 146.9375 C315.28256641 150.48345739 315.28256641 150.48345739 319.34375 153.69140625 C319.8903125 154.12324219 320.436875 154.55507812 321 155 C321 155.66 321 156.32 321 157 C321.56203125 157.2371875 322.1240625 157.474375 322.703125 157.71875 C325.51894042 159.28947697 327.47955416 161.21471464 329.75 163.5 C330.54921875 164.2940625 331.3484375 165.088125 332.171875 165.90625 C334 168 334 168 334 170 C334.9590625 170.4021875 334.9590625 170.4021875 335.9375 170.8125 C338 172 338 172 339 175 C339.66 175 340.32 175 341 175 C342.77643163 177.23753535 344.43237932 179.47222773 346.0625 181.8125 C346.52205078 182.45509766 346.98160156 183.09769531 347.45507812 183.75976562 C351.21545603 189.08834812 352.71026341 193.32597316 352 200 C350.8772589 203.68171595 349.13602957 206.79595564 347 210 C346.34 210 345.68 210 345 210 C344.64421875 210.84256348 344.64421875 210.84256348 344.28125 211.70214844 C342.70680643 214.52582658 340.78315455 216.47614842 338.5 218.765625 C337.613125 219.65507812 336.72625 220.54453125 335.8125 221.4609375 C334.4203125 222.84152344 334.4203125 222.84152344 333 224.25 C331.6078125 225.65378906 331.6078125 225.65378906 330.1875 227.0859375 C329.300625 227.97023438 328.41375 228.85453125 327.5 229.765625 C326.6853125 230.57805664 325.870625 231.39048828 325.03125 232.22753906 C323 234 323 234 321 234 C320.67 234.99 320.34 235.98 320 237 C319.34 237 318.68 237 318 237 C318 237.66 318 238.32 318 239 C317.34 239 316.68 239 316 239 C315.67 239.99 315.34 240.98 315 242 C314.34 242 313.68 242 313 242 C312.67 242.99 312.34 243.98 312 245 C311.34 245 310.68 245 310 245 C310 245.66 310 246.32 310 247 C309.34 247 308.68 247 308 247 C307.67 247.99 307.34 248.98 307 250 C306.34 250 305.68 250 305 250 C305 250.66 305 251.32 305 252 C304.34 252 303.68 252 303 252 C302.65098633 252.8357959 302.65098633 252.8357959 302.29492188 253.68847656 C300.66430607 256.59923645 298.63760806 258.62181133 296.28125 260.984375 C295.34925781 261.91894531 294.41726563 262.85351562 293.45703125 263.81640625 C292.97186035 264.2973877 292.48668945 264.77836914 291.98681641 265.27392578 C290.49793661 266.75204848 289.02008349 268.24059911 287.54296875 269.73046875 C286.61097656 270.65988281 285.67898438 271.58929688 284.71875 272.546875 C283.86216797 273.40120117 283.00558594 274.25552734 282.12304688 275.13574219 C280 277 280 277 278 277 C277.67 277.99 277.34 278.98 277 280 C276.34 280 275.68 280 275 280 C275 280.66 275 281.32 275 282 C274.34 282 273.68 282 273 282 C272.67 282.99 272.34 283.98 272 285 C271.34 285 270.68 285 270 285 C270 285.66 270 286.32 270 287 C269.34 287 268.68 287 268 287 C267.67 287.99 267.34 288.98 267 290 C266.34 290 265.68 290 265 290 C265 290.66 265 291.32 265 292 C264.34 292 263.68 292 263 292 C262.67 292.99 262.34 293.98 262 295 C261.34 295 260.68 295 260 295 C259.65098633 295.8357959 259.65098633 295.8357959 259.29492188 296.68847656 C257.66430607 299.59923645 255.63760806 301.62181133 253.28125 303.984375 C252.34925781 304.91894531 251.41726563 305.85351562 250.45703125 306.81640625 C249.97186035 307.2973877 249.48668945 307.77836914 248.98681641 308.27392578 C247.49793661 309.75204848 246.02008349 311.24059911 244.54296875 312.73046875 C243.61097656 313.65988281 242.67898438 314.58929688 241.71875 315.546875 C240.86216797 316.40120117 240.00558594 317.25552734 239.12304688 318.13574219 C237 320 237 320 235 320 C235 320.66 235 321.32 235 322 C234.34 322 233.68 322 233 322 C232.67 322.99 232.34 323.98 232 325 C231.34 325 230.68 325 230 325 C230 325.66 230 326.32 230 327 C229.34 327 228.68 327 228 327 C227.67 327.99 227.34 328.98 227 330 C226.34 330 225.68 330 225 330 C225 330.66 225 331.32 225 332 C223.625 333.625 223.625 333.625 222 335 C221.34 335 220.68 335 220 335 C219.65098633 335.8357959 219.65098633 335.8357959 219.29492188 336.68847656 C217.66430607 339.59923645 215.63760806 341.62181133 213.28125 343.984375 C212.34925781 344.91894531 211.41726563 345.85351562 210.45703125 346.81640625 C209.97186035 347.2973877 209.48668945 347.77836914 208.98681641 348.27392578 C207.49793661 349.75204848 206.02008349 351.24059911 204.54296875 352.73046875 C203.61097656 353.65988281 202.67898438 354.58929688 201.71875 355.546875 C200.86216797 356.40120117 200.00558594 357.25552734 199.12304688 358.13574219 C197 360 197 360 195 360 C195 360.66 195 361.32 195 362 C194.34 362 193.68 362 193 362 C192.67 362.99 192.34 363.98 192 365 C191.34 365 190.68 365 190 365 C190 365.66 190 366.32 190 367 C188.625 368.625 188.625 368.625 187 370 C186.34 370 185.68 370 185 370 C184.67 370.99 184.34 371.98 184 373 C183.34 373 182.68 373 182 373 C182 373.66 182 374.32 182 375 C181.34 375 180.68 375 180 375 C179.67 375.99 179.34 376.98 179 378 C178.34 378 177.68 378 177 378 C176.7620874 378.56388428 176.5241748 379.12776855 176.27905273 379.70874023 C174.71605363 382.5086537 172.81755033 384.4073357 170.53515625 386.66015625 C169.65279297 387.53607422 168.77042969 388.41199219 167.86132812 389.31445312 C166.4759082 390.67473633 166.4759082 390.67473633 165.0625 392.0625 C164.14275391 392.97322266 163.22300781 393.88394531 162.27539062 394.82226562 C160.56743834 396.51277712 158.85744307 398.20122877 157.14477539 399.88696289 C155.85130108 401.16129644 154.57588249 402.45488768 153.33764648 403.78295898 C152 405 152 405 150 405 C150 405.66 150 406.32 150 407 C148.625 408.625 148.625 408.625 147 410 C146.34 410 145.68 410 145 410 C144.67 410.99 144.34 411.98 144 413 C143.34 413 142.68 413 142 413 C142 413.66 142 414.32 142 415 C141.34 415 140.68 415 140 415 C139.67 415.99 139.34 416.98 139 418 C138.34 418 137.68 418 137 418 C137 418.66 137 419.32 137 420 C136.34 420 135.68 420 135 420 C134.75306396 420.57290771 134.50612793 421.14581543 134.25170898 421.73608398 C132.79953215 424.36257819 131.1095934 426.11660999 128.97265625 428.22265625 C128.18052734 429.00833984 127.38839844 429.79402344 126.57226562 430.60351562 C125.74404297 431.41498047 124.91582031 432.22644531 124.0625 433.0625 C123.23814453 433.87783203 122.41378906 434.69316406 121.56445312 435.53320312 C120.03228837 437.04794277 118.49807918 438.56061923 116.96118164 440.07055664 C115.73768994 441.27424828 114.5347133 442.49960829 113.36499023 443.75561523 C112 445 112 445 110 445 C109.67 445.99 109.34 446.98 109 448 C108.34 448 107.68 448 107 448 C107 448.66 107 449.32 107 450 C106.34 450 105.68 450 105 450 C104.67 450.99 104.34 451.98 104 453 C103.34 453 102.68 453 102 453 C102 453.66 102 454.32 102 455 C100.625 456.625 100.625 456.625 99 458 C98.34 458 97.68 458 97 458 C97 458.66 97 459.32 97 460 C95.37836657 461.71051471 93.7029445 463.37041859 92 465 C90.40131418 466.62007842 88.80367956 468.24119475 87.20703125 469.86328125 C85.40898809 471.67982007 83.6108072 473.49622257 81.8125 475.3125 C80.89791016 476.24384766 79.98332031 477.17519531 79.04101562 478.13476562 C78.16767578 479.01455078 77.29433594 479.89433594 76.39453125 480.80078125 C75.59893799 481.60684814 74.80334473 482.41291504 73.98364258 483.2434082 C72 485 72 485 70 485 C69.67 485.99 69.34 486.98 69 488 C68.34 488 67.68 488 67 488 C67 488.66 67 489.32 67 490 C65.625 491.625 65.625 491.625 64 493 C63.34 493 62.68 493 62 493 C62 493.66 62 494.32 62 495 C60.625 496.625 60.625 496.625 59 498 C58.34 498 57.68 498 57 498 C57 498.66 57 499.32 57 500 C55.625 501.625 55.625 501.625 54 503 C53.34 503 52.68 503 52 503 C51.63745117 503.84933105 51.63745117 503.84933105 51.26757812 504.71582031 C49.74904183 507.4522274 47.92848119 509.33069338 45.71875 511.546875 C44.87699219 512.39121094 44.03523438 513.23554687 43.16796875 514.10546875 C42.28753906 514.97816406 41.40710937 515.85085938 40.5 516.75 C39.61957031 517.63816406 38.73914062 518.52632812 37.83203125 519.44140625 C36.56939453 520.70017578 36.56939453 520.70017578 35.28125 521.984375 C34.50845703 522.75491211 33.73566406 523.52544922 32.93945312 524.31933594 C31 526 31 526 29 526 C29 526.66 29 527.32 29 528 C28.34 528 27.68 528 27 528 C27 528.66 27 529.32 27 530 C25.625 531.625 25.625 531.625 24 533 C23.34 533 22.68 533 22 533 C22 533.66 22 534.32 22 535 C20.625 536.625 20.625 536.625 19 538 C18.34 538 17.68 538 17 538 C16.67 538.99 16.34 539.98 16 541 C15.34 541 14.68 541 14 541 C14 541.66 14 542.32 14 543 C12.37836657 544.71051471 10.7029445 546.37041859 9 548 C7.40131418 549.62007842 5.80367956 551.24119475 4.20703125 552.86328125 C2.40898809 554.67982007 0.6108072 556.49622257 -1.1875 558.3125 C-2.10208984 559.24384766 -3.01667969 560.17519531 -3.95898438 561.13476562 C-4.83232422 562.01455078 -5.70566406 562.89433594 -6.60546875 563.80078125 C-7.79885864 565.00988159 -7.79885864 565.00988159 -9.01635742 566.2434082 C-11 568 -11 568 -13 568 C-13 568.66 -13 569.32 -13 570 C-14.375 571.625 -14.375 571.625 -16 573 C-16.66 573 -17.32 573 -18 573 C-18.33 573.99 -18.66 574.98 -19 576 C-19.66 576 -20.32 576 -21 576 C-21 576.66 -21 577.32 -21 578 C-22.375 579.625 -22.375 579.625 -24 581 C-24.66 581 -25.32 581 -26 581 C-26 581.66 -26 582.32 -26 583 C-27.375 584.625 -27.375 584.625 -29 586 C-29.66 586 -30.32 586 -31 586 C-31.23936279 586.56460938 -31.47872559 587.12921875 -31.7253418 587.7109375 C-33.27181446 590.48813108 -35.14072524 592.3828339 -37.39453125 594.625 C-38.26787109 595.49640625 -39.14121094 596.3678125 -40.04101562 597.265625 C-40.95560547 598.16796875 -41.87019531 599.0703125 -42.8125 600 C-43.71548828 600.90234375 -44.61847656 601.8046875 -45.54882812 602.734375 C-52.32782322 609.46854206 -52.32782322 609.46854206 -55.73706055 612.1640625 C-58.07221073 613.80040217 -58.07221073 613.80040217 -59 616 C-59.66 616 -60.32 616 -61 616 C-61 616.66 -61 617.32 -61 618 C-62.375 619.625 -62.375 619.625 -64 621 C-64.66 621 -65.32 621 -66 621 C-66 621.66 -66 622.32 -66 623 C-67.375 624.625 -67.375 624.625 -69 626 C-69.66 626 -70.32 626 -71 626 C-71 626.66 -71 627.32 -71 628 C-71.66 628 -72.32 628 -73 628 C-73.24169922 628.5662207 -73.48339844 629.13244141 -73.73242188 629.71582031 C-75.25095817 632.4522274 -77.07151881 634.33069338 -79.28125 636.546875 C-80.12300781 637.39121094 -80.96476562 638.23554687 -81.83203125 639.10546875 C-82.71246094 639.97816406 -83.59289063 640.85085938 -84.5 641.75 C-85.38042969 642.63816406 -86.26085938 643.52632812 -87.16796875 644.44140625 C-88.43060547 645.70017578 -88.43060547 645.70017578 -89.71875 646.984375 C-90.49154297 647.75491211 -91.26433594 648.52544922 -92.06054688 649.31933594 C-94 651 -94 651 -96 651 C-96 651.66 -96 652.32 -96 653 C-97.375 654.625 -97.375 654.625 -99 656 C-99.66 656 -100.32 656 -101 656 C-101 656.66 -101 657.32 -101 658 C-102.375 659.625 -102.375 659.625 -104 661 C-104.66 661 -105.32 661 -106 661 C-106 661.66 -106 662.32 -106 663 C-107.65002828 664.35386936 -109.3174387 665.68678142 -111 667 C-111.33 667.66 -111.66 668.32 -112 669 C-112.66 669 -113.32 669 -114 669 C-114.2379126 669.56388428 -114.4758252 670.12776855 -114.72094727 670.70874023 C-116.28394637 673.5086537 -118.18244967 675.4073357 -120.46484375 677.66015625 C-121.34720703 678.53607422 -122.22957031 679.41199219 -123.13867188 680.31445312 C-124.06228516 681.22130859 -124.98589844 682.12816406 -125.9375 683.0625 C-126.85724609 683.97322266 -127.77699219 684.88394531 -128.72460938 685.82226562 C-130.43256166 687.51277712 -132.14255693 689.20122877 -133.85522461 690.88696289 C-135.14869892 692.16129644 -136.42411751 693.45488768 -137.66235352 694.78295898 C-139 696 -139 696 -141 696 C-141 696.66 -141 697.32 -141 698 C-142.390625 699.33203125 -142.390625 699.33203125 -144.25 700.8125 C-147.26768291 703.29370595 -149.56795824 705.9374289 -152 709 C-152.66 709 -153.32 709 -154 709 C-154 709.66 -154 710.32 -154 711 C-155.08061541 712.14637294 -156.17445397 713.28164898 -157.31103516 714.37255859 C-159.36570939 716.3523878 -161.35801405 718.38824955 -163.35546875 720.42578125 C-164.96602641 722.05480558 -166.57670653 723.68370884 -168.1875 725.3125 C-169.00669922 726.14845703 -169.82589844 726.98441406 -170.66992188 727.84570312 C-171.45302734 728.63525391 -172.23613281 729.42480469 -173.04296875 730.23828125 C-173.75477295 730.96055908 -174.46657715 731.68283691 -175.19995117 732.42700195 C-177 734 -177 734 -179 734 C-179 734.66 -179 735.32 -179 736 C-180.49609375 737.4375 -180.49609375 737.4375 -182.4375 739 C-185.15188238 741.14525044 -185.15188238 741.14525044 -187 744 C-187.66 744 -188.32 744 -189 744 C-189 744.66 -189 745.32 -189 746 C-190.375 747.625 -190.375 747.625 -192 749 C-192.66 749 -193.32 749 -194 749 C-194 749.66 -194 750.32 -194 751 C-195.0663839 752.13496876 -196.14719194 753.25777377 -197.27050781 754.33642578 C-199.42257373 756.40646773 -201.51731411 758.52938099 -203.6171875 760.65234375 C-205.36972293 762.41413088 -207.12232911 764.17584763 -208.875 765.9375 C-210.18404297 767.25911133 -210.18404297 767.25911133 -211.51953125 768.60742188 C-215.26990985 772.37189964 -219.00166044 776.08220933 -223.0703125 779.50390625 C-225.99680242 781.66794266 -225.99680242 781.66794266 -227 784 C-227.66 784 -228.32 784 -229 784 C-229 784.66 -229 785.32 -229 786 C-230.28515625 787.2265625 -230.28515625 787.2265625 -232.0625 788.625 C-234.70693478 790.80070949 -236.98938861 793.03182548 -239.1953125 795.6484375 C-243.20699354 800.2981582 -247.47333576 804.65707239 -251.8125 809 C-252.57498047 809.77472656 -253.33746094 810.54945313 -254.12304688 811.34765625 C-254.85201172 812.07855469 -255.58097656 812.80945313 -256.33203125 813.5625 C-256.98921143 814.22378906 -257.6463916 814.88507812 -258.32348633 815.56640625 C-260 817 -260 817 -262 817 C-262 817.66 -262 818.32 -262 819 C-262.66 819 -263.32 819 -264 819 C-264 819.66 -264 820.32 -264 821 C-265.3203125 822.26171875 -265.3203125 822.26171875 -267.125 823.6875 C-270.3381704 826.34129256 -273.0050452 829.16627715 -275.640625 832.38671875 C-277.02627684 834.03118487 -278.39247322 835.56964687 -280 837 C-280.66 837 -281.32 837 -282 837 C-282.25056152 837.57580811 -282.50112305 838.15161621 -282.75927734 838.74487305 C-284.16856699 841.30638593 -285.77908763 843.0218495 -287.8515625 845.08203125 C-288.62113281 845.84966797 -289.39070313 846.61730469 -290.18359375 847.40820312 C-290.98925781 848.20162109 -291.79492188 848.99503906 -292.625 849.8125 C-293.40746094 850.59431641 -294.18992187 851.37613281 -294.99609375 852.18164062 C-299.30815807 856.46152536 -303.70353822 860.58800595 -308.31713867 864.54150391 C-311.68326478 867.45884576 -314.6505966 870.58071592 -317.5 874 C-319.38928558 876.2671427 -321.30207109 878.33769908 -323.39404297 880.40722656 C-325.39576805 882.39251912 -327.37880255 884.39590663 -329.36328125 886.3984375 C-331.01295516 888.05735698 -332.66269658 889.71620932 -334.3125 891.375 C-335.12912109 892.2 -335.94574219 893.025 -336.78710938 893.875 C-340.58023796 897.68324065 -344.40056593 901.46088985 -348.35546875 905.1015625 C-349.26848755 905.94581787 -349.26848755 905.94581787 -350.19995117 906.80712891 C-352 908 -352 908 -356 908 C-357.640625 906.98120117 -357.640625 906.98120117 -359.25 905.54296875 C-359.85158936 905.01372803 -360.45317871 904.4844873 -361.07299805 903.93920898 C-362.02686401 903.07211304 -362.02686401 903.07211304 -363 902.1875 C-363.6700708 901.59074463 -364.3401416 900.99398926 -365.03051758 900.37915039 C-366.3951022 899.16039428 -367.75556978 897.93701235 -369.11181641 896.70898438 C-370.71437991 895.25851314 -372.33038645 893.82291636 -373.94921875 892.390625 C-380.61883932 886.41555836 -386.96977064 880.13105343 -393.3125 873.8125 C-394.16094482 872.96872803 -395.00938965 872.12495605 -395.88354492 871.25561523 C-402.66771887 864.45407509 -408.99874355 857.52643027 -414.640625 849.74609375 C-416.06084015 847.81561377 -416.06084015 847.81561377 -418.4375 845.8125 C-420 844 -420 844 -419.875 841.6875 C-418.76669576 838.28342268 -417.12814639 836.66283564 -414.5625 834.1875 C-413.75941406 833.39730469 -412.95632812 832.60710938 -412.12890625 831.79296875 C-410 830 -410 830 -408 830 C-407.73123047 829.40670898 -407.46246094 828.81341797 -407.18554688 828.20214844 C-405.99709268 825.99459967 -404.79257611 824.53457118 -403.03125 822.765625 C-402.17466797 821.90517578 -402.17466797 821.90517578 -401.30078125 821.02734375 C-400.40939453 820.14755859 -400.40939453 820.14755859 -399.5 819.25 C-398.90574219 818.64800781 -398.31148437 818.04601562 -397.69921875 817.42578125 C-397.12816406 816.85730469 -396.55710937 816.28882813 -395.96875 815.703125 C-395.44732422 815.18395508 -394.92589844 814.66478516 -394.38867188 814.12988281 C-393 813 -393 813 -391 813 C-390.5978125 812.0409375 -390.5978125 812.0409375 -390.1875 811.0625 C-389 809 -389 809 -386 808 C-385.67 807.34 -385.34 806.68 -385 806 C-384 804 -384 804 -381 803 C-380.31513275 801.67592331 -379.65129797 800.34090759 -379 799 C-377 796.75 -377 796.75 -375 795 C-374.34 795 -373.68 795 -373 795 C-372.5978125 794.0409375 -372.5978125 794.0409375 -372.1875 793.0625 C-371 791 -371 791 -368 790 C-367.29313046 788.68753755 -366.63016413 787.35096831 -366 786 C-364.61132812 784.35253906 -364.61132812 784.35253906 -363.03125 782.765625 C-362.46019531 782.19199219 -361.88914062 781.61835937 -361.30078125 781.02734375 C-360.70652344 780.44082031 -360.11226562 779.85429688 -359.5 779.25 C-358.90574219 778.64800781 -358.31148437 778.04601562 -357.69921875 777.42578125 C-356.84263672 776.57306641 -356.84263672 776.57306641 -355.96875 775.703125 C-355.44732422 775.18395508 -354.92589844 774.66478516 -354.38867188 774.12988281 C-353 773 -353 773 -351 773 C-350.5978125 772.0409375 -350.5978125 772.0409375 -350.1875 771.0625 C-349 769 -349 769 -346 768 C-345.31513275 766.67592331 -344.65129797 765.34090759 -344 764 C-342 761.75 -342 761.75 -340 760 C-339.34 760 -338.68 760 -338 760 C-337.5978125 759.0409375 -337.5978125 759.0409375 -337.1875 758.0625 C-336 756 -336 756 -333 755 C-332.30677927 753.68027759 -331.6440675 752.34439551 -331 751 C-329.79158647 749.61630794 -328.52577885 748.28187522 -327.22498691 746.98464459 C-326.43211286 746.18906953 -325.63923882 745.39349448 -324.82233828 744.57381108 C-323.50663434 743.26898958 -323.50663434 743.26898958 -322.16435051 741.93780804 C-321.23343729 741.00668431 -320.30252408 740.07556058 -319.34340137 739.11622098 C-316.74638717 736.51888452 -314.14314457 733.92786857 -311.53890369 731.33778083 C-308.71170408 728.52372915 -305.89033962 725.7038378 -303.06826508 722.88464814 C-298.11711896 717.94014794 -293.1623062 712.99934599 -288.20511246 708.06090927 C-280.83375388 700.71736335 -273.46818143 693.36803483 -266.10395771 686.01733478 C-254.47660918 674.4115146 -242.84588272 662.80908683 -231.21287497 651.20893933 C-212.75076741 632.79886945 -194.29847305 614.37898894 -175.84944713 595.95581068 C-169.55005729 589.66530033 -163.25045075 583.37500698 -156.95088047 577.08467735 C-155.35976473 575.49589477 -153.76865153 573.90710965 -152.17754086 572.31832199 C-133.40804005 553.5762593 -114.63654369 534.83619607 -95.86376953 516.09741211 C-95.04217182 515.27729549 -94.22057411 514.45717886 -93.3740795 513.61221022 C-66.71849487 487.00480969 -40.05410281 460.40625249 -13.38619222 433.81120662 C14.01721583 406.48253779 41.40895083 379.14221679 68.78703923 351.78818168 C72.65048578 347.92815297 76.51408054 344.06827265 80.37777328 340.20849037 C81.13821305 339.44881557 81.89865281 338.68914077 82.68213621 337.90644552 C94.94025456 325.66140495 107.21091958 313.42901134 119.48646144 301.20144038 C131.81438339 288.92124495 144.12982142 276.62864601 156.43241157 264.32307168 C163.74871796 257.00578797 171.07474198 249.69855048 178.41478277 242.40507362 C183.31088093 237.53814053 188.1942896 232.65872169 193.06740106 227.7687733 C195.84824113 224.97906408 198.63443093 222.19531958 201.43620385 219.42662086 C204.44853918 216.44959835 207.43334338 213.44643881 210.41603279 210.43971539 C211.29785109 209.57685788 212.17966939 208.71400037 213.08820945 207.82499567 C217.91964049 203.20177619 217.91964049 203.20177619 219.62588394 197.02435189 C218.91610438 193.59460554 218.42021553 192.73885252 215.5546875 190.82421875 C214.81476562 190.31173584 214.07484375 189.79925293 213.3125 189.27124023 C212.508125 188.74860596 211.70375 188.22597168 210.875 187.6875 C209.20571384 186.54689743 207.53644315 185.40627223 205.8671875 184.265625 C205.03670898 183.71068359 204.20623047 183.15574219 203.35058594 182.58398438 C200.7371951 180.82290422 198.18565407 178.99102404 195.640625 177.13330078 C179.34953732 165.25923122 162.65273956 154.46897595 144.328125 146.0234375 C140.97187486 144.4701685 137.66845975 142.8368987 134.37792969 141.1496582 C117.79020616 132.65092986 100.59392943 125.15692222 83 119 C81.79988281 118.57332031 80.59976563 118.14664063 79.36328125 117.70703125 C70.11724996 114.51366231 60.75412879 111.97435923 51.27539062 109.57763672 C49.20689031 109.05252173 47.14212913 108.51511887 45.078125 107.97265625 C27.02576635 103.30975448 8.80322049 99.67038051 -9.69091797 97.29980469 C-11.75582182 97.03170341 -13.81763944 96.74007573 -15.87890625 96.4453125 C-49.11141822 91.86394818 -82.65095569 91.87965097 -116 95 C-116.98822754 95.08588379 -117.97645508 95.17176758 -118.99462891 95.26025391 C-166.7588803 99.53080745 -216.24227084 111.96731258 -259.640625 132.44921875 C-261.99612072 133.53658131 -264.34378687 134.57982315 -266.734375 135.58203125 C-275.78177178 139.38706396 -284.28183129 143.80602156 -292.8125 148.65625 C-296.23294603 150.59409262 -299.70302786 152.36448142 -303.25 154.0625 C-314.86510524 159.76591719 -325.44408127 167.575746 -336 175 C-336.6909375 175.48436523 -337.381875 175.96873047 -338.09375 176.46777344 C-340.3347366 178.03902856 -342.5739714 179.61274528 -344.8125 181.1875 C-345.50577393 181.67452393 -346.19904785 182.16154785 -346.91333008 182.66333008 C-352.69000234 186.73964152 -358.42260796 190.87085005 -363.875 195.375 C-366 197 -366 197 -368 197 C-368 197.66 -368 198.32 -368 199 C-369.51151546 200.35097374 -371.08813313 201.62927345 -372.6875 202.875 C-377.96004663 207.07249492 -382.89508433 211.52502725 -387.75854492 216.18896484 C-391.78942367 220 -391.78942367 220 -394 220 C-394.268125 220.639375 -394.53625 221.27875 -394.8125 221.9375 C-396 224 -396 224 -399 225 C-399.33 225.99 -399.66 226.98 -400 228 C-400.66 228 -401.32 228 -402 228 C-402 228.66 -402 229.32 -402 230 C-403.65385233 231.34919532 -405.321702 232.68133728 -407 234 C-407.66 234.99 -408.32 235.98 -409 237 C-409.66 237 -410.32 237 -411 237 C-411.26425781 237.59425781 -411.52851563 238.18851563 -411.80078125 238.80078125 C-413.04418284 241.08102587 -414.29184276 242.43065519 -416.1875 244.1875 C-419.73152352 247.59806657 -422.62444105 251.30901645 -425.51953125 255.27734375 C-426.25236328 256.13005859 -426.25236328 256.13005859 -427 257 C-427.66 257 -428.32 257 -429 257 C-429.23332031 257.54269531 -429.46664062 258.08539063 -429.70703125 258.64453125 C-431.36438992 261.66382817 -433.4516076 264.0681161 -435.6875 266.6875 C-436.59858047 267.76745014 -437.50873287 268.84818389 -438.41796875 269.9296875 C-438.86188965 270.4565918 -439.30581055 270.98349609 -439.76318359 271.52636719 C-445.93415455 278.87890976 -451.23860967 286.73002185 -456.50341797 294.73974609 C-458.14465405 297.21846773 -459.8069445 299.68219457 -461.47265625 302.14453125 C-468.06031213 311.90035049 -474.4046929 321.63395737 -480 332 C-480.35368652 332.64324219 -480.70737305 333.28648437 -481.07177734 333.94921875 C-486.63710376 344.07237638 -491.51724644 354.38401573 -496.11083984 364.97949219 C-497.35363507 367.80359249 -498.67753128 370.58747833 -500 373.375 C-507.72815982 390.12630858 -513.62862056 407.36933232 -519 425 C-519.47832275 426.55702637 -519.47832275 426.55702637 -519.96630859 428.14550781 C-529.44870545 459.15669179 -533.54583397 490.4494305 -536.67456055 522.6628418 C-536.85584699 524.52180985 -537.04332578 526.38030148 -537.25474548 528.23608398 C-537.93994954 534.45740145 -538.16060056 540.59513695 -538.16796875 546.8515625 C-538.17129715 547.86809906 -538.17462555 548.88463562 -538.17805481 549.93197632 C-538.18309102 552.07834425 -538.18546416 554.22471992 -538.18530273 556.37109375 C-538.18746141 559.56784965 -538.20557555 562.76424373 -538.22460938 565.9609375 C-538.28756935 587.73110883 -536.24779707 609.06103632 -533.13305664 630.59204102 C-532.68630364 633.69581158 -532.25768884 636.80174423 -531.83007812 639.90820312 C-529.42369526 656.98261166 -525.91421835 673.7208915 -520.75 690.1875 C-520.46189453 691.11836426 -520.17378906 692.04922852 -519.87695312 693.00830078 C-513.331355 713.90093664 -506.10573188 734.47381864 -496.69702148 754.25732422 C-495.07132853 757.67711943 -493.50095088 761.11274395 -491.9921875 764.5859375 C-491.64986084 765.37170166 -491.30753418 766.15746582 -490.95483398 766.96704102 C-490.30281086 768.47027745 -489.65600148 769.97579253 -489.01586914 771.48413086 C-486.48566025 777.30167679 -483.32450418 782.60553131 -480 788 C-479.02039879 789.64141947 -478.04380621 791.28463844 -477.0703125 792.9296875 C-470.68517739 803.66608676 -464.16011275 814.20442005 -456.87890625 824.36328125 C-456.33169922 825.12938721 -455.78449219 825.89549316 -455.22070312 826.68481445 C-454.13579936 828.19955863 -453.04487495 829.7100132 -451.94726562 831.21557617 C-451.45033203 831.90756104 -450.95339844 832.5995459 -450.44140625 833.3125 C-449.99482666 833.92738281 -449.54824707 834.54226563 -449.08813477 835.17578125 C-447.9345098 837.10979196 -447.43187937 838.80023776 -447 841 C-446.34 841 -445.68 841 -445 841 C-443.77119892 842.55708372 -442.61818749 844.17417202 -441.5 845.8125 C-437.11653269 852.00186038 -432.1553861 857.45328096 -427 863 C-425.84775524 864.30687501 -424.70129833 865.6188914 -423.5625 866.9375 C-420.1794152 870.83003757 -416.6963008 874.62827959 -413.20092773 878.41967773 C-409.43280484 882.51050487 -405.73682531 886.661416 -402.0703125 890.84375 C-399.86549204 893.14009131 -397.50404334 895.03924828 -395 897 C-394.195625 897.825 -393.39125 898.65 -392.5625 899.5 C-390.02433467 902.13321223 -390.02433467 902.13321223 -386.6875 904.1875 C-385.800625 904.785625 -384.91375 905.38375 -384 906 C-384 906.66 -384 907.32 -384 908 C-383.42306396 908.26772217 -382.84612793 908.53544434 -382.25170898 908.8112793 C-379.93922637 910.03208357 -378.02989559 911.40813626 -375.97265625 913.01953125 C-358.06988848 926.85650956 -339.93559284 938.34406906 -319 947 C-317.71726924 947.5451527 -316.43470458 948.09069645 -315.15234375 948.63671875 C-307.96911855 951.61474791 -300.67857859 954.20273105 -293.3125 956.6875 C-292.46953369 956.97318848 -291.62656738 957.25887695 -290.75805664 957.55322266 C-279.39978374 961.31033376 -267.91842139 963.68142496 -256.125 965.625 C-254.23587891 965.94984375 -254.23587891 965.94984375 -252.30859375 966.28125 C-239.2261954 968.45940882 -226.28222946 969.17163087 -213.04101562 969.13037109 C-211.00122656 969.12500323 -208.96165755 969.13036276 -206.921875 969.13671875 C-159.73921363 969.16510143 -105.17239565 955.96022658 -66.48828125 927.80859375 C-63.53413876 925.66139128 -60.52699882 923.60563443 -57.5 921.5625 C-56.4996875 920.88316406 -55.499375 920.20382812 -54.46875 919.50390625 C-52 918 -52 918 -50 918 C-50 917.34 -50 916.68 -50 916 C-48.26451831 914.55473264 -46.46024037 913.1912778 -44.625 911.875 C-43.62726562 911.15054688 -42.62953125 910.42609375 -41.6015625 909.6796875 C-39 908 -39 908 -37 908 C-37 907.34 -37 906.68 -37 906 C-35.73162117 904.92483858 -34.40519893 903.91827343 -33.0625 902.9375 C-19.77816943 892.56739579 -8.43433222 879.84570589 1.6875 866.44140625 C2.14519775 865.83844727 2.60289551 865.23548828 3.07446289 864.61425781 C3.96625848 863.43542001 4.85117357 862.25133737 5.72827148 861.06152344 C6.77242987 859.67156822 7.88104295 858.33048012 9 857 C9.66 857 10.32 857 11 857 C11.07476563 856.32066406 11.14953125 855.64132812 11.2265625 854.94140625 C12.23141428 851.11992447 14.22104711 848.1933046 16.375 844.9375 C20.46151969 838.58834518 24.25128656 832.12415804 27.875 825.5 C28.32665527 824.6762085 28.77831055 823.85241699 29.24365234 823.00366211 C30.50978995 820.67627956 31.75962495 818.34120153 33 816 C33.3594873 815.32702881 33.71897461 814.65405762 34.08935547 813.96069336 C36.67684072 808.97709024 38.5831236 803.8781915 40.375 798.5625 C40.9834329 796.77311689 41.59282218 794.9840587 42.203125 793.1953125 C42.50412109 792.31262695 42.80511719 791.42994141 43.11523438 790.52050781 C43.90134318 788.28105215 44.73551717 786.07351588 45.609375 783.8671875 C50.63571303 770.98299702 52.74515202 757.59832471 55 744 C55.26949463 742.42617554 55.26949463 742.42617554 55.54443359 740.82055664 C62.02529291 702.78687853 62.55276549 654.70926275 47.890625 618.26953125 C46.81228916 615.52166668 45.88803521 612.7322074 44.9375 609.9375 C39.61675106 595.0903802 33.59145848 580.42421307 24.87231445 567.22729492 C23.640625 565.30078125 23.640625 565.30078125 22 562 C23.03754883 559.11299555 24.59271574 557.15858736 26.74612427 555.0133667 C27.58324951 554.17211746 27.58324951 554.17211746 28.43728638 553.31387329 C29.04724457 552.71110565 29.65720276 552.10833801 30.28564453 551.48730469 C30.92967224 550.84298492 31.57369995 550.19866516 32.23724365 549.53482056 C34.36439307 547.40906302 36.49853612 545.29047492 38.6328125 543.171875 C40.11012593 541.69829219 41.58699804 540.22426682 43.06344604 538.74981689 C46.94870369 534.87219179 50.83993029 531.00061059 54.73242188 527.13024902 C58.70413678 523.17900061 62.670189 519.22207739 66.63671875 515.265625 C74.4189412 507.50484579 82.20747999 499.75043852 90 492 C94.42679007 493.47559669 94.91432696 495.90057368 97 500 C97 500.66 97 501.32 97 502 C97.66 502 98.32 502 99 502 C99.33 503.65 99.66 505.3 100 507 C100.66 507 101.32 507 102 507 C102.31710937 507.58523438 102.63421875 508.17046875 102.9609375 508.7734375 C105.43447521 513.32420025 107.92088093 517.86617964 110.44921875 522.38671875 C110.87992676 523.15773926 111.31063477 523.92875977 111.75439453 524.72314453 C112.60375389 526.24209962 113.45488911 527.76006355 114.30810547 529.27685547 C125.41149508 549.14631152 133.60911691 570.18589808 140 592 C140.23025879 592.77504883 140.46051758 593.55009766 140.69775391 594.34863281 C145.29237023 609.90223495 149.12820969 625.73005339 151.6875 641.75 C151.84822998 642.7553479 151.84822998 642.7553479 152.01220703 643.78100586 C152.37291736 646.18376566 152.68667657 648.59057852 153 651 C153.16991455 652.18859619 153.3398291 653.37719238 153.51489258 654.60180664 C155.23660054 667.45741162 155.33873896 680.2728695 155.31567383 693.2277832 C155.3125319 696.90020991 155.33599495 700.57181381 155.36132812 704.24414062 C155.41805945 725.25759941 153.83288456 746.14339657 149.5625 766.75 C149.3464209 767.82741455 149.1303418 768.9048291 148.90771484 770.01489258 C147.25455276 778.10806651 145.37714894 786.0859906 143 794 C142.73396973 794.88848633 142.46793945 795.77697266 142.19384766 796.69238281 C140.42801706 802.56818654 138.63670464 808.43580968 136.82495117 814.29760742 C136.28775224 816.05737511 135.7612993 817.82047074 135.24731445 819.5871582 C133.56174312 825.37951696 131.57604274 830.97147096 129.3125 836.5625 C128.96654785 837.42020996 128.6205957 838.27791992 128.26416016 839.16162109 C123.66016277 850.43964631 118.76790512 861.56061396 112.28515625 871.8984375 C111.12555733 873.79468133 110.13930296 875.68145789 109.1875 877.6875 C106.26774416 883.69662405 102.66571277 889.34328768 99.18896484 895.04101562 C98.01611803 896.97344331 96.85985462 898.91494957 95.70703125 900.859375 C94.9924334 902.05223068 94.27760033 903.24494548 93.5625 904.4375 C92.92441406 905.50871094 92.28632813 906.57992187 91.62890625 907.68359375 C91.09136719 908.44800781 90.55382813 909.21242188 90 910 C89.34 910 88.68 910 88 910 C87.67128906 911.00546875 87.67128906 911.00546875 87.3359375 912.03125 C85.58093032 915.93126595 83.20275453 919.10394309 80.625 922.5 C80.09551758 923.2019751 79.56603516 923.9039502 79.02050781 924.62719727 C74.16430164 930.96565065 68.86483474 936.78743899 63.35449219 942.55566406 C60.64515365 945.4447136 58.08983233 948.47249661 55.5234375 951.48828125 C54 953 54 953 52 953 C51.34 954.65 50.68 956.3 50 958 C49.34 958 48.68 958 48 958 C47.731875 958.639375 47.46375 959.27875 47.1875 959.9375 C46 962 46 962 43 963 C42.67 963.66 42.34 964.32 42 965 C41.67 965.66 41.34 966.32 41 967 C40.01 967.33 39.02 967.66 38 968 C38 968.66 38 969.32 38 970 C36.5390625 971.5078125 36.5390625 971.5078125 34.625 973.125 C33.68527344 973.93324219 33.68527344 973.93324219 32.7265625 974.7578125 C31 976 31 976 29 976 C29 976.66 29 977.32 29 978 C26.8828125 979.7265625 26.8828125 979.7265625 24.125 981.625 C23.22007812 982.25664063 22.31515625 982.88828125 21.3828125 983.5390625 C19 985 19 985 17 985 C17 985.66 17 986.32 17 987 C14.21977839 989.58432524 11.04381767 991.73748313 8 994 C6.92131374 994.8273938 5.84321659 995.65555603 4.765625 996.484375 C-4.65103058 1003.64350508 -14.56528569 1009.7500906 -24.78076172 1015.69873047 C-26.65931417 1016.80023592 -28.52110645 1017.93024891 -30.37890625 1019.06640625 C-37.66501361 1023.49754909 -45.23745781 1026.84820223 -53.06884766 1030.16796875 C-55.94802883 1031.40845541 -58.78539026 1032.73435123 -61.625 1034.0625 C-63.74931492 1035.04315208 -65.87430708 1036.02233852 -68 1037 C-69.01449219 1037.47050781 -70.02898438 1037.94101563 -71.07421875 1038.42578125 C-138.07782021 1068.41171146 -216.74245699 1072.93572796 -288 1058 C-288.9060498 1057.81743652 -289.81209961 1057.63487305 -290.74560547 1057.44677734 C-318.27870199 1051.8344409 -345.79253502 1041.78683225 -370.80712891 1029.08276367 C-373.34025943 1027.8319917 -375.91729097 1026.80192933 -378.5625 1025.8125 C-386.11625779 1022.73431927 -393.00335609 1018.51872313 -399.93945312 1014.26171875 C-401.38393918 1013.37722776 -402.83653552 1012.50591009 -404.29492188 1011.64453125 C-405.02775391 1011.20496094 -405.76058594 1010.76539063 -406.515625 1010.3125 C-407.18368164 1009.91675781 -407.85173828 1009.52101563 -408.54003906 1009.11328125 C-409.02182617 1008.74589844 -409.50361328 1008.37851563 -410 1008 C-410 1007.34 -410 1006.68 -410 1006 C-410.70511719 1005.7421875 -411.41023438 1005.484375 -412.13671875 1005.21875 C-415.24269315 1003.89669814 -417.95978065 1002.30252146 -420.8125 1000.5 C-421.78832031 999.8915625 -422.76414062 999.283125 -423.76953125 998.65625 C-424.50558594 998.1096875 -425.24164062 997.563125 -426 997 C-426 996.34 -426 995.68 -426 995 C-426.66 994.79375 -427.32 994.5875 -428 994.375 C-432.07180186 992.50875748 -435.68796998 990.02438473 -439 987 C-439 986.34 -439 985.68 -439 985 C-439.70511719 984.77699219 -440.41023438 984.55398438 -441.13671875 984.32421875 C-444.61953781 982.71347433 -447.08361215 980.44176743 -449.8125 977.8125 C-450.79715528 976.88042978 -451.78285283 975.94945954 -452.76953125 975.01953125 C-453.28588135 974.53081543 -453.80223145 974.04209961 -454.33422852 973.53857422 C-456.11031558 971.89810805 -457.93216758 970.32209869 -459.765625 968.74609375 C-464.69564256 964.45485898 -469.31946382 959.87240808 -473.9375 955.25 C-474.82268311 954.36401123 -475.70786621 953.47802246 -476.61987305 952.56518555 C-482.48676802 946.64290665 -487.99531075 940.67665942 -493 934 C-497.72515469 927.57272689 -497.72515469 927.57272689 -503.4375 922.0625 C-504.283125 921.381875 -505.12875 920.70125 -506 920 C-506 919.34 -506 918.68 -506 918 C-506.66 918 -507.32 918 -508 918 C-509.62309353 916.07521623 -511.13213947 914.14735906 -512.625 912.125 C-513.52638619 910.92506134 -514.42874121 909.72584989 -515.33203125 908.52734375 C-516.00613037 907.62991455 -516.00613037 907.62991455 -516.69384766 906.71435547 C-518.5124964 904.3273365 -520.41117724 902.00892454 -522.3125 899.6875 C-531 888.88539554 -531 888.88539554 -531 885 C-531.66 885 -532.32 885 -533 885 C-534.2890625 883.3203125 -534.2890625 883.3203125 -535.625 881.125 C-536.07101563 880.40570312 -536.51703125 879.68640625 -536.9765625 878.9453125 C-538 877 -538 877 -538 875 C-538.66 875 -539.32 875 -540 875 C-541.55167828 872.75903037 -542.97495744 870.52172204 -544.375 868.1875 C-545.27771854 866.70776723 -546.18140472 865.22862445 -547.0859375 863.75 C-547.5612793 862.97011719 -548.03662109 862.19023438 -548.52636719 861.38671875 C-549.98146562 859.03001857 -551.47099523 856.6997296 -552.9765625 854.375 C-559.97473073 843.550169 -566.18319944 832.49861734 -572 821 C-572.7169394 819.60390541 -573.43437025 818.20806306 -574.15234375 816.8125 C-577.90611811 809.46402458 -581.37329384 802.03137518 -584.63085938 794.44995117 C-586.30815737 790.54906584 -588.08929903 786.745989 -590.04077148 782.97705078 C-591.08479944 780.82522121 -591.9743091 778.6469045 -592.8515625 776.421875 C-594.23271136 772.9332917 -595.62764932 769.4514204 -597.04296875 765.9765625 C-604.83845694 746.63166689 -612.06912956 726.83951219 -616.05078125 706.3203125 C-616.79353582 702.64617723 -617.8302651 699.0907367 -618.890625 695.49609375 C-621.14475313 687.71503178 -622.86132462 679.8758942 -624.4375 671.9375 C-624.58552063 671.19875641 -624.73354126 670.46001282 -624.88604736 669.69888306 C-627.29624126 657.58358802 -629.23202113 645.4293248 -630.875 633.1875 C-630.97827606 632.42307587 -631.08155212 631.65865173 -631.18795776 630.87106323 C-639.58307888 568.0539778 -636.38498251 501.90943811 -623 440 C-622.78843262 439.0212793 -622.57686523 438.04255859 -622.35888672 437.03417969 C-620.96952548 430.67408632 -619.50946011 424.3325871 -618 418 C-617.8261377 417.26604004 -617.65227539 416.53208008 -617.47314453 415.77587891 C-608.51667756 378.19366971 -594.39264462 342.43675001 -577.00732422 308.00732422 C-576.01615077 306.0321841 -575.03905397 304.05072616 -574.06640625 302.06640625 C-563.10510823 279.75015712 -550.11380793 258.94114629 -535.80078125 238.6171875 C-534.12820791 236.18633254 -532.58081875 233.71657273 -531.0625 231.1875 C-530.381875 230.135625 -529.70125 229.08375 -529 228 C-528.34 228 -527.68 228 -527 228 C-526.78214844 227.32066406 -526.56429687 226.64132812 -526.33984375 225.94140625 C-524.6014348 222.12501577 -522.19685899 219.17635336 -519.5625 215.9375 C-518.58433643 214.71768761 -517.60646391 213.49764177 -516.62890625 212.27734375 C-516.17016113 211.71128418 -515.71141602 211.14522461 -515.23876953 210.56201172 C-514.20865163 209.2630968 -513.23516286 207.91951578 -512.27734375 206.56640625 C-511.85582031 206.04949219 -511.43429688 205.53257812 -511 205 C-510.34 205 -509.68 205 -509 205 C-508.731875 204.41347656 -508.46375 203.82695312 -508.1875 203.22265625 C-506.98588009 200.97357161 -505.70078498 199.33044097 -504 197.4375 C-503.071875 196.39916016 -503.071875 196.39916016 -502.125 195.33984375 C-498.89453562 191.78276992 -495.66266273 188.22701844 -492.42578125 184.67578125 C-488.22787369 180.0452391 -484.09767626 175.37635353 -480.1875 170.5 C-479.465625 169.675 -478.74375 168.85 -478 168 C-477.34 168 -476.68 168 -476 168 C-476 167.34 -476 166.68 -476 166 C-474.64453125 164.66796875 -474.64453125 164.66796875 -472.8125 163.1875 C-469.67182365 160.63527282 -466.85505845 157.86795781 -464 155 C-458.44577719 149.83598417 -452.79372247 144.7822951 -447.05859375 139.8203125 C-445.57136774 138.5052322 -444.10795324 137.16305463 -442.66015625 135.8046875 C-431.29319248 125.17273041 -418.66175616 116.02234764 -406 107 C-405.0728418 106.33750244 -405.0728418 106.33750244 -404.12695312 105.66162109 C-399.10561625 102.07751625 -394.06279967 98.52528744 -389 95 C-388.09604492 94.36989014 -388.09604492 94.36989014 -387.17382812 93.72705078 C-370.83393359 82.40875267 -353.80269488 71.81326142 -335.64453125 63.69140625 C-332.2465465 62.15731737 -329.07027878 60.36313159 -325.875 58.4375 C-315.81888177 52.40382906 -305.02902913 47.9267646 -294.17456055 43.55029297 C-290.07071943 41.88796583 -286.09418424 40.09332497 -282.125 38.125 C-271.20414037 32.98820222 -259.46635435 29.69080089 -248 26 C-246.53623551 25.52021053 -245.07265426 25.03986106 -243.609375 24.55859375 C-232.15906678 20.86769653 -220.52143955 17.85111992 -208.89453125 14.77392578 C-206.54902119 14.14679463 -204.2102805 13.50371344 -201.875 12.83984375 C-179.72688825 6.62327147 -156.7765436 3.04669242 -134 0 C-132.12223877 -0.25209229 -132.12223877 -0.25209229 -130.20654297 -0.50927734 C-88.03093723 -5.82044262 -42.11060552 -5.7166942 0 0 Z " fill="#F7632A" transform="translate(2629,46)"/>
<path d="M0 0 C46.86 0 93.72 0 142 0 C142.01981934 11.41706543 142.03963867 22.83413086 142.06005859 34.59716797 C142.12492836 71.16815983 142.19946509 107.73912631 142.28005161 144.31008678 C142.2925698 149.99497306 142.30500268 155.67985952 142.31738281 161.36474609 C142.31984881 162.49645812 142.3223148 163.62817014 142.32485552 164.79417647 C142.36453014 183.09521124 142.39730088 201.39625214 142.42749982 219.69730471 C142.45866367 238.48951622 142.49729403 257.2817018 142.54279006 276.07388413 C142.57060802 287.66051131 142.59266993 299.24711962 142.60726251 310.83377112 C142.61784154 318.78970081 142.63570271 326.74559385 142.65916704 334.70149587 C142.67247363 339.28488914 142.68268787 343.86823129 142.68421364 348.4516449 C142.68568617 352.66050208 142.69644805 356.86923653 142.71413441 361.07805587 C142.71892439 362.58845337 142.72050879 364.0988658 142.71827881 365.60926925 C142.69996914 380.46603899 144.05131221 395.1452265 147.1875 409.6875 C147.40253174 410.6873291 147.61756348 411.6871582 147.83911133 412.71728516 C152.94288618 435.68517212 160.11840769 455.28916331 175.1640625 473.59375 C177 476 177 476 177 478 C177.66 478 178.32 478 179 478 C179 478.66 179 479.32 179 480 C179.99 480.33 180.98 480.66 182 481 C182 481.66 182 482.32 182 483 C182.66 483 183.32 483 184 483 C185.625 484.375 185.625 484.375 187 486 C187 486.66 187 487.32 187 488 C187.56332031 488.26167969 188.12664062 488.52335937 188.70703125 488.79296875 C191.21218384 490.11169473 193.39719404 491.64916991 195.6875 493.3125 C200.30427386 496.57736351 205.00001472 499.37321639 210 502 C210.74652832 502.39541992 211.49305664 502.79083984 212.26220703 503.19824219 C246.06686594 520.64715572 290.06562663 522.05975162 326.1262207 510.97119141 C346.93495693 504.24398353 365.22332858 493.19435945 380 477 C380.33 476.34 380.66 475.68 381 475 C381.66 475 382.32 475 383 475 C383.26296875 474.27167969 383.5259375 473.54335937 383.796875 472.79296875 C385.01491502 469.96537585 386.43209297 467.78960305 388.25 465.3125 C400.99856048 447.33782156 407.06792413 427.20702249 410.75 405.625 C410.92341919 404.61107178 410.92341919 404.61107178 411.1003418 403.57666016 C412.96632557 391.75167872 413.14972972 379.84691753 413.15148926 367.90325928 C413.15534794 366.31295265 413.15963695 364.72264701 413.16431475 363.13234258 C413.17585766 358.79684261 413.18141555 354.46135309 413.18594956 350.1258409 C413.19193564 345.43751881 413.20359352 340.74921037 413.21458435 336.06089783 C413.23287591 327.94928093 413.24774399 319.83766369 413.26036072 311.72603607 C413.27869604 299.99705932 413.30335784 288.26810221 413.32973462 276.53914109 C413.37245984 257.50575532 413.41159552 238.47236417 413.44775391 219.43896484 C413.44991671 218.30117322 413.45207951 217.16338159 413.45430785 215.99111143 C413.47184039 206.75283149 413.48919563 197.51455122 413.50651073 188.27627087 C413.52168082 180.18304111 413.53691089 172.08981147 413.55224609 163.99658203 C413.55440496 162.85654353 413.55656383 161.71650504 413.55878812 160.54191992 C413.59484814 141.56293725 413.63478961 122.58396469 413.67754889 103.60499597 C413.70373861 91.89692377 413.7263893 80.1888547 413.74453247 68.48076722 C413.75716334 60.47276994 413.77327561 52.46478469 413.79218161 44.45679978 C413.80297525 39.83087642 413.81208092 35.20496478 413.81687737 30.57903099 C413.82128552 26.35188053 413.83019783 22.12476537 413.84282058 17.89763168 C413.84658014 16.36167673 413.84861875 14.82571651 413.84884077 13.28975698 C413.84937591 11.21585849 413.85593889 9.14206792 413.86412811 7.06818771 C413.86624408 5.91215129 413.86836005 4.75611486 413.87054014 3.56504703 C414 1 414 1 415 0 C416.83494486 -0.09646028 418.67364587 -0.12187344 420.51112366 -0.12025452 C422.30540047 -0.12231651 422.30540047 -0.12231651 424.13592529 -0.12442017 C425.47351099 -0.12088057 426.81109644 -0.11724575 428.14868164 -0.11352539 C429.54782611 -0.11324352 430.94697073 -0.11340125 432.34611511 -0.1139679 C436.15586459 -0.11425588 439.96558286 -0.10835898 443.77532506 -0.10139394 C447.75251309 -0.09516059 451.72970176 -0.09455662 455.70689392 -0.09336853 C463.24338539 -0.09025516 470.77986243 -0.08204169 478.31634754 -0.07201904 C486.89419828 -0.06085808 495.4720497 -0.0553475 504.0499059 -0.05032361 C521.69994546 -0.03985908 539.34997157 -0.02225953 557 0 C557.04584912 48.78261287 557.08105553 97.56522355 557.10213066 146.34785375 C557.10463186 152.11642402 557.10722052 157.88499425 557.10986328 163.65356445 C557.11065021 165.3760807 557.11065021 165.3760807 557.11145304 167.13339525 C557.12013873 185.68972785 557.13589853 204.24604797 557.15430559 222.80237318 C557.17305584 241.86466265 557.18412753 260.92694561 557.18817699 279.98924392 C557.19091144 291.73709848 557.19952554 303.48491775 557.21583293 315.23276144 C557.22646318 323.30551406 557.22958706 331.37824863 557.22700275 339.45100773 C557.2257308 344.09781766 557.22758116 348.74456623 557.23841095 353.39136505 C557.27962874 372.01864548 557.17559213 390.4696098 555 409 C554.88621482 410.00153142 554.77242964 411.00306284 554.65519643 412.0349437 C551.0976968 443.32882161 544.31702436 475.0740286 530.97265625 503.76171875 C529.79870627 506.4632181 528.85764634 509.22325373 527.875 512 C524.91053533 519.83465662 520.66338465 526.85145815 516.26171875 533.95556641 C515.37524931 535.39196252 514.50415215 536.83790428 513.64453125 538.29052734 C513.20496094 539.02352051 512.76539063 539.75651367 512.3125 540.51171875 C511.71888672 541.51464966 511.71888672 541.51464966 511.11328125 542.5378418 C510.74589844 543.020354 510.37851562 543.50286621 510 544 C509.34 544 508.68 544 508 544 C507.64228516 545.04994141 507.64228516 545.04994141 507.27734375 546.12109375 C505.77265032 549.51240584 503.8246662 552.12428413 501.5625 555.0625 C500.78003906 556.08472656 499.99757813 557.10695313 499.19140625 558.16015625 C498.46824219 559.09730469 497.74507812 560.03445313 497 561 C496.17822266 562.17369141 496.17822266 562.17369141 495.33984375 563.37109375 C494.89769531 563.90863281 494.45554687 564.44617187 494 565 C493.34 565 492.68 565 492 565 C491.7421875 565.57234375 491.484375 566.1446875 491.21875 566.734375 C489.88634058 569.21128995 488.34943882 571.1341166 486.5 573.25 C485.8915625 573.95640625 485.283125 574.6628125 484.65625 575.390625 C483 577 483 577 481 577 C480.67 577.99 480.34 578.98 480 580 C478.22265625 581.82421875 478.22265625 581.82421875 476.0625 583.6875 C475.35222656 584.31011719 474.64195312 584.93273438 473.91015625 585.57421875 C472 587 472 587 470 587 C470 587.66 470 588.32 470 589 C468.3203125 590.5078125 468.3203125 590.5078125 466.125 592.125 C465.40570313 592.66382813 464.68640625 593.20265625 463.9453125 593.7578125 C462 595 462 595 460 595 C460 595.66 460 596.32 460 597 C456.44673226 599.79185323 452.64912514 602.2447766 448.88623047 604.74462891 C447.06340061 605.95780405 445.25232098 607.18710873 443.44140625 608.41796875 C437.24124934 612.57702123 431.09742716 616.06859481 424.10546875 618.765625 C420.61819058 620.15176324 417.25521072 621.75134701 413.875 623.375 C398.3665387 630.68726936 382.61499878 635.81650238 366 640 C365.23268555 640.19722656 364.46537109 640.39445312 363.67480469 640.59765625 C362.95454102 640.78199219 362.23427734 640.96632813 361.4921875 641.15625 C360.88101074 641.31287109 360.26983398 641.46949219 359.64013672 641.63085938 C343.65775883 645.452951 327.49624374 647.49251571 311.125 648.6875 C310.28283936 648.75003967 309.44067871 648.81257935 308.57299805 648.87701416 C265.78682992 652.00366475 221.37163947 650.23382222 180 638 C178.98035156 637.74089844 177.96070313 637.48179687 176.91015625 637.21484375 C168.6697183 635.06733568 160.76828832 632.14539275 152.8125 629.125 C151.7196167 628.71427246 150.6267334 628.30354492 149.50073242 627.88037109 C143.20534156 625.44973662 137.36598547 622.66339659 131.49829102 619.33520508 C129.28753541 618.15367255 127.1841305 617.25565183 124.8203125 616.44140625 C120.41483067 614.90161532 116.73939025 612.52084692 112.875 609.9375 C112.14869385 609.45869385 111.4223877 608.9798877 110.67407227 608.48657227 C105.71955429 605.19921692 100.8056 601.85150043 95.9375 598.4375 C95.33599121 598.02040771 94.73448242 597.60331543 94.11474609 597.17358398 C92.70483738 596.16737065 91.34609794 595.09010467 90 594 C90 593.34 90 592.68 90 592 C89.38125 591.690625 88.7625 591.38125 88.125 591.0625 C86.75 590.375 85.375 589.6875 84 589 C84 588.34 84 587.68 84 587 C83.1330249 586.61871948 83.1330249 586.61871948 82.24853516 586.22973633 C77.97177617 583.89075316 74.78622793 580.12183828 71.375 576.6875 C70.57336426 575.883125 69.77172852 575.07875 68.94580078 574.25 C52 557.00606278 52 557.00606278 52 552 C51.34 552 50.68 552 50 552 C48.52294922 550.06665039 48.52294922 550.06665039 46.8046875 547.34765625 C46.1746582 546.35121094 45.54462891 545.35476563 44.89550781 544.328125 C44.22874023 543.25046875 43.56197266 542.1728125 42.875 541.0625 C41.85937988 539.42861328 41.85937988 539.42861328 40.82324219 537.76171875 C34.3449182 527.18740211 28.98311229 516.4676562 24.69238281 504.83544922 C23.79494092 502.45640544 22.77451468 500.1393027 21.75 497.8125 C11.77838515 473.7791169 5.24421417 447.96107026 2.34914291 422.10529453 C2.16013274 420.42422862 1.96918337 418.74335381 1.76750721 417.06376036 C0.38199082 405.50715091 -0.28701746 394.16345304 -0.24050903 382.52961731 C-0.24138419 380.86329845 -0.24314084 379.19697986 -0.24568737 377.53066272 C-0.25010404 373.01292446 -0.24223677 368.49528322 -0.23213124 363.9775573 C-0.22341586 359.08282195 -0.22642257 354.18809116 -0.22793579 349.29335022 C-0.22897957 340.83314044 -0.22275627 332.37296174 -0.21146011 323.91275978 C-0.19513891 311.68104606 -0.18999036 299.44934722 -0.18748413 287.21762379 C-0.18311737 267.36781166 -0.16983603 247.51801606 -0.15087891 227.66821289 C-0.13249366 208.39705487 -0.11835013 189.12590136 -0.10986328 169.85473633 C-0.10907511 168.0700266 -0.10907511 168.0700266 -0.10827102 166.24926213 C-0.10566076 160.27977571 -0.10313339 154.31028926 -0.10064721 148.34080279 C-0.07994646 98.89385384 -0.0430939 49.4469355 0 0 Z " fill="#237A7D" transform="translate(27,1288)"/>
<path d="M0 0 C44.55 0 89.1 0 135 0 C140.62122789 11.24245578 140.62122789 11.24245578 142.6484375 16.1015625 C143.09292236 17.16068848 143.53740723 18.21981445 143.99536133 19.31103516 C144.45064209 20.40464355 144.90592285 21.49825195 145.375 22.625 C146.34419114 24.93786096 147.31424096 27.25036229 148.28515625 29.5625 C148.98342529 31.22539063 148.98342529 31.22539063 149.69580078 32.921875 C151.35720545 36.8430637 153.07812048 40.73570992 154.8125 44.625 C157.38003836 50.40177324 159.62928843 56.26025205 161.79541016 62.19580078 C163.81466175 67.6657922 166.20037636 72.91862302 168.69921875 78.1875 C169.74288246 80.44407018 170.66689183 82.66145076 171.5 85 C172.6711722 88.26589733 174.08052504 91.36267139 175.5625 94.5 C179.09527152 102.03480842 182.24682386 109.72036114 185.39672852 117.421875 C187.44050671 122.38862336 189.57556127 127.22790936 192.03027344 132.00341797 C193.92378455 135.90199146 195.42984276 139.9632263 197 144 C197.6414432 145.60878615 198.28465223 147.21686945 198.9296875 148.82421875 C199.24695801 149.61755615 199.56422852 150.41089355 199.89111328 151.22827148 C200.56872793 152.92197182 201.24681549 154.61548301 201.92529297 156.30883789 C203.50746872 160.25917112 205.08617667 164.21053894 206.640625 168.171875 C209.32090629 174.98501632 212.18444502 181.66378075 215.30078125 188.2890625 C217.47687249 192.97825608 219.4774244 197.7431474 221.5 202.5 C224.44990001 209.43462665 227.49197038 216.30213692 230.68359375 223.12890625 C232.39525742 226.86205996 233.96235131 230.64559187 235.51953125 234.4453125 C236.70220563 237.28497922 237.90983279 240.10907615 239.13671875 242.9296875 C246.00712233 258.74512093 246.00712233 258.74512093 248.6875 266.5 C250.53455498 271.84215565 252.71460564 276.89029428 255.1328125 281.99609375 C261.41066864 295.32855772 267.24453031 308.88752446 272.61328125 322.609375 C274.10635005 326.26003337 275.74360577 329.81457355 277.4375 333.375 C282.33253817 343.66838043 286.58505717 354.2196508 290.625 364.875 C292.46102875 369.70728414 294.51170193 374.38496675 296.69140625 379.0703125 C298.18967053 382.42463551 299.53717641 385.82970273 300.875 389.25 C303.15917956 395.07328899 305.69934653 400.72518362 308.3918457 406.36962891 C310.96598872 411.81315716 313.19227325 417.35553329 315.34765625 422.9765625 C316.70630748 426.40087185 318.25006326 429.72482049 319.80859375 433.0625 C323.07569306 440.0862347 326.06038676 447.2091285 329 454.375 C329.5313014 455.6636537 330.0627973 456.95222723 330.59448242 458.24072266 C333.21507624 464.60041767 335.79654069 470.97320597 338.3125 477.375 C340.42796909 482.71609688 342.78823042 487.91142974 345.25292969 493.09716797 C350.33011868 503.84379198 354.78918373 514.87448587 359.125 525.9375 C360.88210379 530.38724662 362.78087996 534.63797547 365 538.875 C367.76994047 544.23454628 369.78611935 549.69746016 371.64453125 555.42333984 C373.49562643 560.9942162 375.9021737 566.23188313 378.39404297 571.54370117 C381.06482384 577.29168609 383.5556405 583.1165995 386.0625 588.9375 C387.19220269 591.55881198 388.32251102 594.17986221 389.453125 596.80078125 C389.88453545 597.80150665 389.88453545 597.80150665 390.32466125 598.82244873 C392.13346215 603.01229357 393.96073324 607.19355871 395.8028717 611.36885071 C397.01786185 614.12310303 398.22765577 616.87962466 399.43722534 619.63626099 C400.0177664 620.95532653 400.60085173 622.27327541 401.18655396 623.59005737 C402.00206981 625.42430257 402.80789892 627.26284532 403.61328125 629.1015625 C404.07516846 630.14650879 404.53705566 631.19145508 405.01293945 632.26806641 C406 635 406 635 406 639 C356.83 639 307.66 639 257 639 C253.7 630.75 250.4 622.5 247 614 C245.39125 610.0090625 245.39125 610.0090625 243.75 605.9375 C242.01977607 601.62652072 240.361769 597.29752898 238.7590332 592.93823242 C236.31251731 586.28802149 233.61040911 579.88247975 230.56640625 573.4765625 C228.40916228 568.68866441 226.54316362 563.80178703 224.71118164 558.88134766 C223.02961915 554.42880275 221.14995936 550.11862901 219.12890625 545.80859375 C215.94999111 538.99634987 213.15829272 532.06825016 210.4375 525.0625 C209.98181641 523.90298828 209.52613281 522.74347656 209.05664062 521.54882812 C205.87664491 513.41111505 202.94263674 505.23938287 200 497 C111.56 496.67 23.12 496.34 -68 496 C-68.99 499.3 -69.98 502.6 -71 506 C-71.58184551 507.64201356 -72.18476088 509.27718966 -72.83203125 510.89453125 C-73.15276611 511.69842285 -73.47350098 512.50231445 -73.80395508 513.33056641 C-74.1367749 514.14960449 -74.46959473 514.96864258 -74.8125 515.8125 C-75.33589966 517.11453369 -75.33589966 517.11453369 -75.86987305 518.44287109 C-77.88446219 523.40816763 -80.01560951 528.28430328 -82.3125 533.125 C-84.37343682 537.47401989 -85.91853132 541.69823312 -87.18139648 546.3347168 C-88.05726428 549.1864462 -89.13625823 551.87090223 -90.30078125 554.6171875 C-90.74639404 555.67333252 -91.19200684 556.72947754 -91.65112305 557.81762695 C-92.09625244 558.86781006 -92.54138184 559.91799316 -93 561 C-93.76412124 562.82375809 -94.52718355 564.6479603 -95.2890625 566.47265625 C-95.85705566 567.83136841 -95.85705566 567.83136841 -96.43652344 569.2175293 C-99.61769968 576.83261697 -102.7857325 584.45179578 -105.8828125 592.1015625 C-106.36153809 593.28355225 -106.84026367 594.46554199 -107.33349609 595.68334961 C-108.24815132 597.94602565 -109.16012939 600.20978659 -110.06884766 602.47485352 C-112.75432703 609.11945903 -115.63725427 615.6394294 -118.67041016 622.13256836 C-120.13445814 625.28997628 -121.49817376 628.46542264 -122.8125 631.6875 C-124.9270073 636.8540146 -124.9270073 636.8540146 -126 639 C-173.85 639 -221.7 639 -271 639 C-267.62747138 628.88241415 -267.62747138 628.88241415 -266.1328125 625.60546875 C-265.80732422 624.88439941 -265.48183594 624.16333008 -265.14648438 623.42041016 C-264.80939453 622.6835498 -264.47230469 621.94668945 -264.125 621.1875 C-263.40789347 619.59548447 -262.69174646 618.00303638 -261.9765625 616.41015625 C-261.63399414 615.64848145 -261.29142578 614.88680664 -260.93847656 614.10205078 C-257.79757185 607.06688179 -254.95923341 599.90737013 -252.10864258 592.7512207 C-247.7938541 581.91944016 -243.39043702 571.15068428 -238.5 560.5625 C-236.56144766 556.34583997 -234.81767152 552.06974645 -233.125 547.75 C-230.8418917 541.93058761 -228.30545581 536.28127512 -225.61254883 530.64135742 C-223.20449754 525.55265784 -221.10462726 520.37357611 -219.05859375 515.13061523 C-217.83776832 512.02317148 -216.57020359 509.00905488 -215 506.0625 C-213.05895155 502.35613588 -211.63058834 498.48205686 -210.1875 494.5625 C-208.06947776 488.81521803 -205.88298755 483.10637292 -203.5625 477.4375 C-203.31072998 476.81496338 -203.05895996 476.19242676 -202.79956055 475.55102539 C-201.19504201 471.6591202 -199.46396104 467.84101752 -197.66305542 464.03585815 C-192.72910925 453.60635484 -188.31718756 442.97468898 -183.90405273 432.31665039 C-180.27527509 423.56479144 -176.64354823 414.90673113 -172.22265625 406.51904297 C-170.46675023 402.90134362 -169.32630375 399.14751518 -168.1171875 395.3203125 C-164.67890986 385.10165519 -160.19112229 375.25198261 -155.55761719 365.52856445 C-153.51400167 361.20451714 -151.68013495 356.82820986 -149.9375 352.375 C-146.52419798 343.65953618 -142.65992738 335.19588344 -138.375 326.875 C-136.17263558 322.5338009 -134.50157199 318.10234906 -132.89453125 313.51171875 C-131.74188119 310.27523845 -130.3597935 307.15472092 -129 304 C-128.28752836 302.12656858 -127.57982358 300.25132216 -126.875 298.375 C-121.88644934 285.32338407 -116.23273646 272.5259145 -110.31640625 259.87109375 C-108.60803786 256.14512709 -107.04487339 252.36790681 -105.484375 248.578125 C-103.49785282 243.789561 -101.47143074 239.0185893 -99.4375 234.25 C-98.87325317 232.9187207 -98.87325317 232.9187207 -98.29760742 231.56054688 C-96.60411922 227.59682696 -94.87524851 223.69058519 -92.8984375 219.859375 C-90.93996835 216.0149189 -89.54150305 212.08952366 -88.1875 208 C-85.5322565 200.26277726 -82.42632814 192.82882038 -79.06738281 185.375 C-76.91835897 180.59327449 -74.80351624 175.79640145 -72.6875 171 C-72.21900635 169.9392627 -71.7505127 168.87852539 -71.26782227 167.78564453 C-67.5571437 159.34922743 -64.00750344 150.85223586 -60.49560547 142.33154297 C-58.22961263 136.86137269 -55.87507023 131.46235559 -53.3125 126.125 C-50.49672209 120.21777362 -48.09235436 114.23087653 -45.76708984 108.12060547 C-42.49304281 99.56595456 -38.84684845 91.17651441 -35.20068359 82.77539062 C-33.83531415 79.61932722 -32.48172463 76.45833824 -31.12890625 73.296875 C-27.67078448 65.22153952 -24.17496414 57.16273638 -20.67724609 49.10449219 C-13.60477916 32.80798192 -6.59841223 16.49603057 0 0 Z M65 170 C64.72849121 170.68924561 64.45698242 171.37849121 64.17724609 172.08862305 C55.10205735 195.07999733 55.10205735 195.07999733 50.23046875 205.30078125 C48.61939285 208.83491917 47.32624408 212.44629036 46.04956055 216.11206055 C45.02096436 218.9423151 43.89386478 221.70423711 42.71875 224.4765625 C39.89268751 231.21412301 37.22020763 238.00710828 34.5625 244.8125 C33.5918392 247.28933473 32.62002314 249.76571529 31.6484375 252.2421875 C30.43412731 255.33974366 29.21991184 258.437329 28.00878906 261.53613281 C27.7300293 262.24866211 27.45126953 262.96119141 27.1640625 263.6953125 C26.93799316 264.2742627 26.71192383 264.85321289 26.47900391 265.44970703 C24.50795184 270.39983223 22.44062517 275.27018525 20.16796875 280.08984375 C17.10567894 286.68746002 14.33241391 293.37542747 11.625 300.125 C8.33284122 308.27754754 5.00688701 316.41055921 1.5625 324.5 C-0.74086408 329.92403268 -2.91903176 335.35041051 -4.8671875 340.9140625 C-6.84423694 346.29981788 -9.02679846 351.60574726 -11.18359375 356.92163086 C-11.51746094 357.74800049 -11.85132812 358.57437012 -12.1953125 359.42578125 C-12.49453613 360.16223877 -12.79375977 360.89869629 -13.10205078 361.6574707 C-14.15573739 364.40628066 -15.0690751 367.20722531 -16 370 C38.12 370 92.24 370 148 370 C146.70791764 364.83167054 144.75689483 360.01634957 142.8125 355.0625 C142.40684814 354.02649658 142.00119629 352.99049316 141.58325195 351.9230957 C139.00691208 345.40028319 136.26887063 339.01920962 133.26171875 332.68359375 C130.07287601 325.90113256 127.59229677 318.88012153 125.125 311.8125 C121.49071901 301.42328378 117.59743835 291.23555072 112.8125 281.3125 C108.73773156 272.85974625 105.43590125 264.09562962 102.08325195 255.3371582 C99.40837913 248.39577286 96.5112809 241.62362397 93.3503418 234.88964844 C87.98702429 223.41247866 83.67135498 211.49156751 79.27954102 199.61987305 C76.85433966 193.12050035 74.23110369 186.83266516 71.21875 180.58203125 C69.58590999 177.12271315 68.27249926 173.60541457 67 170 C66.34 170 65.68 170 65 170 Z " fill="#237A7D" transform="translate(2060,1288)"/>
<path d="M0 0 C1.06379883 0.05381836 2.12759766 0.10763672 3.22363281 0.16308594 C41.32041537 2.22709895 80.47882099 10.29464624 115 27 C116.23184184 27.55741611 117.46502781 28.11186711 118.69921875 28.6640625 C135.59467684 36.29687212 151.60758889 45.68570141 167 56 C168.01449219 56.67289063 169.02898438 57.34578125 170.07421875 58.0390625 C175.26933974 61.56044158 175.26933974 61.56044158 177 63 C177 63.66 177 64.32 177 65 C177.67675781 65.19464844 178.35351562 65.38929687 179.05078125 65.58984375 C183.13866732 67.54444888 185.95834886 70.42782769 189.1875 73.5625 C190.4291564 74.75321665 191.67256494 75.94210968 192.91796875 77.12890625 C193.46219482 77.65556885 194.0064209 78.18223145 194.56713867 78.72485352 C195.99246623 80.10478928 195.99246623 80.10478928 198 81 C198 81.66 198 82.32 198 83 C198.5671875 83.26167969 199.134375 83.52335937 199.71875 83.79296875 C205.6893159 86.95205242 211.13528921 91.45498017 215 97 C213.50592885 101.7312253 213.50592885 101.7312253 211 103.0625 C210.34 103.371875 209.68 103.68125 209 104 C208.31731862 105.32520503 207.6492959 106.65812182 207 108 C205.515 108.495 205.515 108.495 204 109 C203.67 109.99 203.34 110.98 203 112 C202.34 112 201.68 112 201 112 C201 112.66 201 113.32 201 114 C200.34 114 199.68 114 199 114 C198.67 114.99 198.34 115.98 198 117 C197.34 117 196.68 117 196 117 C196 117.66 196 118.32 196 119 C195.34 119 194.68 119 194 119 C193.731875 119.598125 193.46375 120.19625 193.1875 120.8125 C192.00082594 122.99847854 190.90400887 124.41332594 189 126 C188.34 126 187.68 126 187 126 C186.67 126.99 186.34 127.98 186 129 C185.34 129 184.68 129 184 129 C184 129.66 184 130.32 184 131 C183.34 131 182.68 131 182 131 C181.67 131.99 181.34 132.98 181 134 C180.34 134 179.68 134 179 134 C179 134.66 179 135.32 179 136 C178.34 136 177.68 136 177 136 C176.67 136.99 176.34 137.98 176 139 C175.34 139 174.68 139 174 139 C173.731875 139.639375 173.46375 140.27875 173.1875 140.9375 C172 143 172 143 169 144 C168.67 144.99 168.34 145.98 168 147 C167.34 147 166.68 147 166 147 C166 147.66 166 148.32 166 149 C165.34 149 164.68 149 164 149 C163.67 149.99 163.34 150.98 163 152 C162.34 152 161.68 152 161 152 C161 152.66 161 153.32 161 154 C160.34 154 159.68 154 159 154 C158.67 154.99 158.34 155.98 158 157 C157.34 157 156.68 157 156 157 C155.67 157.99 155.34 158.98 155 160 C154.34 160 153.68 160 153 160 C153 160.66 153 161.32 153 162 C152.34 162 151.68 162 151 162 C150.731875 162.598125 150.46375 163.19625 150.1875 163.8125 C149.00082594 165.99847854 147.90400887 167.41332594 146 169 C145.34 169 144.68 169 144 169 C144 169.66 144 170.32 144 171 C143.34 171 142.68 171 142 171 C141.67 171.99 141.34 172.98 141 174 C140.34 174 139.68 174 139 174 C138.731875 174.639375 138.46375 175.27875 138.1875 175.9375 C137 178 137 178 134 179 C133.67 179.99 133.34 180.98 133 182 C132.34 182 131.68 182 131 182 C131 182.66 131 183.32 131 184 C130.34 184 129.68 184 129 184 C128.67 184.99 128.34 185.98 128 187 C127.34 187 126.68 187 126 187 C126 187.66 126 188.32 126 189 C125.34 189 124.68 189 124 189 C123.67 189.99 123.34 190.98 123 192 C122.34 192 121.68 192 121 192 C120.34 193.32 119.68 194.64 119 196 C114.39860359 194.51131293 111.49772906 192.25370145 108 189 C108 188.34 108 187.68 108 187 C107.38125 186.690625 106.7625 186.38125 106.125 186.0625 C104.75 185.375 103.375 184.6875 102 184 C102 183.34 102 182.68 102 182 C100.68 181.67 99.36 181.34 98 181 C98 180.34 98 179.68 98 179 C97.26652344 178.73832031 96.53304688 178.47664063 95.77734375 178.20703125 C92.95036533 176.97842881 90.97784036 175.58963145 88.5625 173.6875 C43.86176917 140.52439023 -11.01787059 124.72387966 -66.24707031 132.30859375 C-81.61831388 134.65446418 -96.10481488 139.01963577 -110 146 C-111.31190118 146.63925123 -112.62443185 147.27721175 -113.9375 147.9140625 C-130.37787928 155.93876606 -144.9149765 165.042631 -158.29296875 177.6015625 C-160 179 -160 179 -162 179 C-162.33 179.99 -162.66 180.98 -163 182 C-163.66 182 -164.32 182 -165 182 C-165 182.66 -165 183.32 -165 184 C-165.66 184 -166.32 184 -167 184 C-167.2165625 184.52980469 -167.433125 185.05960938 -167.65625 185.60546875 C-169.50069241 188.89222224 -171.99815459 191.52152991 -174.5 194.3125 C-184.50466743 205.75997435 -192.30777576 218.38068312 -199 232 C-199.40250977 232.81355957 -199.80501953 233.62711914 -200.21972656 234.46533203 C-206.67824135 247.66391171 -211.47210102 260.74683508 -215 275 C-215.19819336 275.75700195 -215.39638672 276.51400391 -215.60058594 277.29394531 C-227.97950041 324.6177212 -222.54686397 382.14487184 -198.96875 425.22558594 C-198.03078167 426.94361865 -197.12417744 428.67865991 -196.21875 430.4140625 C-178.78675205 463.61409496 -151.65563444 493.50141493 -117 509 C-116.29746094 509.31839844 -115.59492187 509.63679688 -114.87109375 509.96484375 C-79.85633199 525.78821159 -43.20595588 530.91629851 -5 525 C-3.86949219 524.87882812 -2.73898437 524.75765625 -1.57421875 524.6328125 C25.76773065 521.54225767 55.60039994 508.80454118 78.08203125 493.171875 C80 492 80 492 82 492 C82 491.34 82 490.68 82 490 C83.51958587 488.95547504 85.09481215 487.99175725 86.6875 487.0625 C95.34343841 481.71946585 102.71662698 474.90463477 110.3125 468.1875 C111.5374747 467.12016972 112.76659609 466.05757824 114 465 C114.68835937 464.40832031 115.37671875 463.81664062 116.0859375 463.20703125 C116.77945312 462.64371094 117.47296875 462.08039063 118.1875 461.5 C118.79980469 460.9946875 119.41210938 460.489375 120.04296875 459.96875 C122.74927293 458.62910242 124.13516626 459.17339814 127 460 C128.81611633 461.32164001 128.81611633 461.32164001 130.50512695 463.01928711 C131.14541336 463.65342026 131.78569977 464.28755341 132.44538879 464.94090271 C133.45662056 465.97369102 133.45662056 465.97369102 134.48828125 467.02734375 C135.19147995 467.73145889 135.89467865 468.43557404 136.6191864 469.161026 C138.10057182 470.64844533 139.57710149 472.14071437 141.04907227 473.63745117 C143.31099765 475.93597334 145.5886053 478.21800289 147.86914062 480.49804688 C149.30563663 481.94437044 150.74121594 483.39160517 152.17578125 484.83984375 C152.86005692 485.52634506 153.54433258 486.21284637 154.24934387 486.92015076 C154.87386948 487.55743607 155.49839508 488.19472137 156.1418457 488.85131836 C156.97193901 489.69284706 156.97193901 489.69284706 157.81880188 490.55137634 C159 492 159 492 159 494 C159.9590625 494.4021875 159.9590625 494.4021875 160.9375 494.8125 C163 496 163 496 164 499 C164.55526367 499.27199219 165.11052734 499.54398438 165.68261719 499.82421875 C169.04806644 501.53176232 171.44708818 504.16202846 174.078125 506.8125 C174.93528107 507.66678589 174.93528107 507.66678589 175.80975342 508.53833008 C177.01234789 509.7395668 178.21243334 510.94331997 179.41015625 512.14941406 C181.25040717 514.00040955 183.10112633 515.84045446 184.953125 517.6796875 C186.12043384 518.84831724 187.28712251 520.01756684 188.453125 521.1875 C189.00929504 521.73962158 189.56546509 522.29174316 190.13848877 522.8605957 C194 526.77006365 194 526.77006365 194 529 C194.639375 529.268125 195.27875 529.53625 195.9375 529.8125 C198 531 198 531 199 534 C199.55171875 534.26554687 200.1034375 534.53109375 200.671875 534.8046875 C204.15237146 536.5916538 206.54502691 539.33590096 209.25 542.125 C209.80429688 542.68832031 210.35859375 543.25164063 210.9296875 543.83203125 C212.29104485 545.21686028 213.64614859 546.60783204 215 548 C213.79618552 550.49361571 212.54571278 552.68143083 211 555 C210.34 555 209.68 555 209 555 C208.7525 555.61875 208.505 556.2375 208.25 556.875 C206.79371361 559.35068687 205.62187494 559.95125002 203 561 C203 561.66 203 562.32 203 563 C202.34 563 201.68 563 201 563 C201 563.66 201 564.32 201 565 C199.56640625 566.41015625 199.56640625 566.41015625 197.5625 568.0625 C194.47013306 570.67911818 191.61348463 573.38702716 188.8125 576.3125 C185.11944821 580.05720287 181.21622602 583.35168296 177.0625 586.5625 C176.49442627 587.00440674 175.92635254 587.44631348 175.34106445 587.90161133 C171.25528397 591 171.25528397 591 169 591 C169 591.66 169 592.32 169 593 C167.56298828 594.23681641 167.56298828 594.23681641 165.5703125 595.6015625 C164.85746094 596.09140625 164.14460938 596.58125 163.41015625 597.0859375 C162.65605469 597.59382813 161.90195313 598.10171875 161.125 598.625 C160.00544922 599.3984375 160.00544922 599.3984375 158.86328125 600.1875 C153.265563 604 153.265563 604 151 604 C151 604.66 151 605.32 151 606 C148.93023319 607.60878735 146.87462094 609.06444436 144.6875 610.5 C144.02540527 610.93779785 143.36331055 611.3755957 142.68115234 611.82666016 C131.70407014 618.93096896 119.98424252 624.80364144 108 630 C106.36224609 630.72123047 106.36224609 630.72123047 104.69140625 631.45703125 C101.13792623 632.99642896 97.57418155 634.50944172 94 636 C93.32291992 636.28278809 92.64583984 636.56557617 91.94824219 636.85693359 C79.87310573 641.85055799 67.6291238 645.67020718 55 649 C54.29085449 649.19190918 53.58170898 649.38381836 52.85107422 649.58154297 C43.56381882 652.07302566 34.19297897 653.69511371 24.6875 655.125 C23.63353027 655.28371582 22.57956055 655.44243164 21.49365234 655.60595703 C17.99972147 656.10795556 14.50242917 656.56115175 11 657 C9.98518051 657.13400711 9.98518051 657.13400711 8.94985962 657.27072144 C-6.01920603 659.20675691 -20.98094523 659.34310627 -36.05200195 659.31567383 C-38.80021574 659.31105157 -41.54798593 659.31794781 -44.29614258 659.33618164 C-62.05917027 659.452807 -79.41866122 658.70532992 -97 656 C-98.06246445 655.83943619 -98.06246445 655.83943619 -99.14639282 655.67562866 C-102.88719083 655.09901182 -106.60108119 654.42871681 -110.3125 653.6875 C-111.38459717 653.47657715 -112.45669434 653.2656543 -113.5612793 653.04833984 C-123.59200398 651.00265393 -133.28524641 648.20193079 -143 645 C-144.81508142 644.4126901 -146.63018621 643.82545245 -148.4453125 643.23828125 C-161.4054666 639.01119592 -174.09203598 634.65415075 -186.23828125 628.3984375 C-188.61290839 627.19600961 -190.99030767 626.10556558 -193.4375 625.0625 C-210.23901593 617.68917287 -225.22387994 607.0457856 -240.05419922 596.38476562 C-241.37900371 595.44194366 -242.71452811 594.51404633 -244.05908203 593.59960938 C-245.73947158 592.44700475 -247.37468708 591.22905019 -249 590 C-249 589.34 -249 588.68 -249 588 C-250.051875 587.67128906 -250.051875 587.67128906 -251.125 587.3359375 C-254.68373789 585.68228484 -257.21014007 583.31572785 -260 580.625 C-261.01940212 579.65734418 -262.04021897 578.69117639 -263.0625 577.7265625 C-263.55105469 577.26282227 -264.03960938 576.79908203 -264.54296875 576.32128906 C-265.92560291 575.067466 -267.39931748 573.91628945 -268.875 572.7734375 C-269.926875 571.89558594 -269.926875 571.89558594 -271 571 C-271 570.34 -271 569.68 -271 569 C-271.99 568.67 -272.98 568.34 -274 568 C-274 567.34 -274 566.68 -274 566 C-274.639375 565.731875 -275.27875 565.46375 -275.9375 565.1875 C-278 564 -278 564 -279 561 C-279.99 560.67 -280.98 560.34 -282 560 C-282 559.34 -282 558.68 -282 558 C-282.66 558 -283.32 558 -284 558 C-285.39325954 556.44759659 -286.71380128 554.82970015 -288 553.1875 C-291.23641888 549.12376504 -294.55596848 545.28186368 -298.125 541.5 C-302.07394229 537.20423227 -305.22955129 532.82699416 -308.24609375 527.84375 C-310.0946476 524.84654019 -312.08641114 521.99604347 -314.125 519.125 C-328.71331052 498.22196704 -340.73617869 476.15578537 -349 452 C-349.33572021 451.02595215 -349.33572021 451.02595215 -349.67822266 450.03222656 C-352.29810982 442.40971809 -354.77852801 434.74832258 -357 427 C-357.18030762 426.38350586 -357.36061523 425.76701172 -357.54638672 425.13183594 C-368.52025959 387.51470847 -372.43397889 348.90289771 -370.16015625 309.8125 C-370.02785776 307.48920947 -369.92410192 305.169229 -369.84375 302.84375 C-369.28572923 290.45568891 -367.07277254 278.20779813 -365 266 C-364.84660156 265.09523926 -364.69320313 264.19047852 -364.53515625 263.25830078 C-361.62202628 246.52391589 -357.32656408 229.87807845 -350.85253906 214.15722656 C-349.88255548 211.70282366 -349.2061067 209.26037096 -348.625 206.6875 C-347.07010665 200.75740143 -344.61347609 195.45021231 -341.93603516 189.95019531 C-340.88329593 187.75685131 -339.86825086 185.54800785 -338.85546875 183.3359375 C-335.1170135 175.21961781 -331.36573049 167.42393905 -326.3125 160.03125 C-324.84142447 157.93970682 -324.84142447 157.93970682 -324 155 C-323.34 155 -322.68 155 -322 155 C-321.84337891 153.89978516 -321.84337891 153.89978516 -321.68359375 152.77734375 C-320.93608972 149.74034168 -319.90910357 148.0695359 -318.0625 145.5625 C-317.4334375 144.69625 -316.804375 143.83 -316.15625 142.9375 C-315.4446875 141.968125 -314.733125 140.99875 -314 140 C-312.77498111 138.28821864 -311.55619645 136.57210387 -310.33764648 134.85571289 C-309.0646859 133.06557399 -307.78518504 131.28028609 -306.50390625 129.49609375 C-304.87416782 127.22603354 -303.25775506 124.94747605 -301.65234375 122.66015625 C-300.94207031 121.65855469 -300.23179688 120.65695312 -299.5 119.625 C-298.55640625 118.28308594 -298.55640625 118.28308594 -297.59375 116.9140625 C-297.0678125 116.28242187 -296.541875 115.65078125 -296 115 C-295.34 115 -294.68 115 -294 115 C-293.731875 114.4225 -293.46375 113.845 -293.1875 113.25 C-291.97070811 110.94449957 -290.69666121 108.97943808 -289 107 C-288.34 107 -287.68 107 -287 107 C-286.73445313 106.41863281 -286.46890625 105.83726563 -286.1953125 105.23828125 C-282.83705891 98.94978679 -277.18488918 94.07967669 -271.796875 89.54296875 C-269.97551144 88.0324814 -269.97551144 88.0324814 -268.390625 86.30078125 C-267 85 -267 85 -265 85 C-264.505 83.515 -264.505 83.515 -264 82 C-263.34 82 -262.68 82 -262 82 C-262 81.34 -262 80.68 -262 80 C-256.52380952 75 -256.52380952 75 -254 75 C-254 74.34 -254 73.68 -254 73 C-252.3203125 71.4921875 -252.3203125 71.4921875 -250.125 69.875 C-249.40570312 69.33617187 -248.68640625 68.79734375 -247.9453125 68.2421875 C-246 67 -246 67 -244 67 C-244 66.34 -244 65.68 -244 65 C-242.20137336 63.5926429 -240.33139607 62.27627172 -238.4375 61 C-237.85323242 60.60554688 -237.26896484 60.21109375 -236.66699219 59.8046875 C-235.41703907 58.96211179 -234.16518106 58.12235637 -232.91162109 57.28515625 C-231.06019203 56.04046626 -229.22596831 54.77386955 -227.39453125 53.5 C-214.26490025 44.44227263 -200.23536092 37.44957903 -185.78125 30.76953125 C-182.83105261 29.40217261 -179.94114142 27.95075842 -177.0625 26.4375 C-147.9633219 11.95981996 -111.82351818 2.06733793 -79.35546875 1.140625 C-76.08033347 1.07527451 -76.08033347 1.07527451 -73.2109375 0.51953125 C-68.63367322 -0.22107234 -64.06650679 -0.37482191 -59.4375 -0.5625 C-58.41954346 -0.6042334 -57.40158691 -0.6459668 -56.3527832 -0.68896484 C-37.54378657 -1.40335972 -18.79373232 -0.96817873 0 0 Z " fill="#237A7D" transform="translate(1572,1279)"/>
<path d="M0 0 C160.71 0 321.42 0 487 0 C487 42.57 487 85.14 487 129 C373.15 129 259.3 129 142 129 C142 173.22 142 217.44 142 263 C242.32 263 342.64 263 446 263 C446 305.57 446 348.14 446 392 C445 393 445 393 442.93295664 393.1241985 C442.01289428 393.12381878 441.09283192 393.12343906 440.14488888 393.12304783 C438.55869902 393.1260344 438.55869902 393.1260344 436.94046491 393.12908131 C435.76442042 393.12616847 434.58837593 393.12325563 433.37669373 393.12025452 C432.13852294 393.12110894 430.90035215 393.12196337 429.62466103 393.12284368 C426.17222261 393.12421194 422.71984017 393.12106421 419.26740849 393.11606562 C415.55028158 393.11176462 411.83315653 393.11320729 408.11602783 393.1139679 C401.67064945 393.11449335 395.22528116 393.11134428 388.77990532 393.10573006 C379.46086651 393.09761801 370.14183259 393.09500014 360.82279063 393.09374207 C345.7048557 393.09155108 330.58692615 393.08488974 315.46899414 393.07543945 C300.77954129 393.06626654 286.0900899 393.05919658 271.40063477 393.05493164 C270.02958164 393.05452964 270.02958164 393.05452964 268.63083047 393.05411953 C261.48293577 393.05204022 254.33504105 393.05008326 247.18714631 393.04816496 C212.12475926 393.03872386 177.06238569 393.01860732 142 393 C142 474.18 142 555.36 142 639 C95.14 639 48.28 639 0 639 C0 428.13 0 217.26 0 0 Z " fill="#237A7E" transform="translate(679,1288)"/>
<path d="M0 0 C174.57 0 349.14 0 529 0 C529 43.23 529 86.46 529 131 C464.98 131 400.96 131 335 131 C335 298.64 335 466.28 335 639 C288.14 639 241.28 639 193 639 C193 471.36 193 303.72 193 131 C129.31 131 65.62 131 0 131 C0 87.77 0 44.54 0 0 Z " fill="#237A7D" transform="translate(2390,1288)"/>
<path d="M0 0 C0.99 0.33 1.98 0.66 3 1 C3.14695312 2.22847656 3.29390625 3.45695313 3.4453125 4.72265625 C7.49667392 37.08345348 14.3092031 69.2990912 24.265625 100.35546875 C25 103 25 103 25 106 C24.34 106 23.68 106 23 106 C23 106.66 23 107.32 23 108 C22.34 108 21.68 108 21 108 C20.77183594 108.55042969 20.54367187 109.10085938 20.30859375 109.66796875 C18.6203073 112.67664639 16.45736161 114.82830353 14.0625 117.3125 C4.09660673 127.91869242 -3.97247413 140.08157767 -11.86962891 152.26806641 C-12.88887233 153.82973225 -13.93320252 155.3749552 -14.98046875 156.91796875 C-22.36636103 168.20239386 -27.50770046 180.72255578 -33 193 C-33.38212646 193.83877686 -33.76425293 194.67755371 -34.15795898 195.54174805 C-39.01695343 206.26571399 -42.46221861 217.51320005 -45 229 C-45.22187988 229.9890332 -45.22187988 229.9890332 -45.44824219 230.99804688 C-46.77180317 236.9742066 -47.91963307 242.97544702 -49 249 C-49.18771973 250.03237793 -49.37543945 251.06475586 -49.56884766 252.12841797 C-54.52449085 280.31127429 -55.34185375 309.80585609 -50 338 C-49.74494404 339.43729645 -49.49100347 340.87479137 -49.23828125 342.3125 C-48.76524181 344.95189122 -48.26199337 347.57975519 -47.7421875 350.2109375 C-47.2352157 352.79916197 -46.75755939 355.37716141 -46.3203125 357.9765625 C-41.40333712 386.77249507 -28.51473404 414.86782952 -12.8125 439.375 C-12.40845947 440.0244458 -12.00441895 440.6738916 -11.58813477 441.34301758 C-9.84241316 443.98355986 -8.63409998 445.7634624 -5.61572266 446.8894043 C-2.96603666 447.24559945 -2.96603666 447.24559945 -0.92407227 445.72436523 C0.15015991 444.68324585 0.15015991 444.68324585 1.24609375 443.62109375 C2.11476074 442.7894873 2.98342773 441.95788086 3.87841797 441.10107422 C4.91993989 440.06838493 5.96037154 439.03459544 7 438 C8.29411477 436.73030647 9.58857116 435.46096108 10.88330078 434.19189453 C14.54152207 430.59145165 18.17429404 426.96635649 21.79858398 423.33178711 C24.08527577 421.03967019 26.37734864 418.75302962 28.66992188 416.46679688 C30.1253213 415.01073775 31.58041109 413.55436905 33.03515625 412.09765625 C33.72045914 411.41437759 34.40576202 410.73109894 35.11183167 410.02711487 C35.74016403 409.39563034 36.3684964 408.76414581 37.01586914 408.11352539 C37.56972794 407.558871 38.12358673 407.00421661 38.69422913 406.43275452 C40.10654597 405.01352952 40.10654597 405.01352952 41 403 C41.66 403 42.32 403 43 403 C43 402.34 43 401.68 43 401 C44.49031067 399.5296936 44.49031067 399.5296936 46.53833008 397.83056641 C50.68683951 394.30090673 54.5528259 390.57668906 58.38671875 386.7109375 C59.05161819 386.04462311 59.71651764 385.37830872 60.40156555 384.69180298 C62.49926759 382.5885683 64.59344856 380.4818687 66.6875 378.375 C68.10197896 376.95549538 69.51669068 375.53622265 70.93164062 374.1171875 C74.04847198 370.9906101 77.16309202 367.86184969 80.27568054 364.73104858 C81.64789871 363.35347536 83.02317054 361.97894408 84.39949036 360.60546875 C86.91250482 358.08766203 89.40651466 355.55274664 91.89453125 353.01025391 C96.55909261 348.24814682 101.23849311 343.50092702 105.92686462 338.76226234 C108.75583289 335.90184194 111.57886019 333.03601066 114.38964844 330.15771484 C117.11854426 327.36373416 119.86174889 324.58457554 122.61557007 321.81516647 C123.6606554 320.75899554 124.70044538 319.69755754 125.73477173 318.63084793 C127.17806366 317.14412367 128.63893214 315.67712748 130.10546875 314.21337891 C131.34526489 312.95359726 131.34526489 312.95359726 132.61010742 311.66836548 C135 310 135 310 137.66333008 310.10482788 C140.85483127 311.32748362 142.31164421 313.14554839 144.5 315.75 C148.13738114 320.01106666 148.13738114 320.01106666 152.0625 324 C154 326 154 326 154 328 C154.66 328 155.32 328 156 328 C157.30567127 329.49481057 158.54251025 331.049816 159.75 332.625 C163.71324635 337.59037226 167.93834381 342.14087955 172.4375 346.625 C173.05270508 347.24068848 173.66791016 347.85637695 174.30175781 348.49072266 C177.36592493 351.630754 177.36592493 351.630754 181 354 C181 354.66 181 355.32 181 356 C181.56203125 356.24363281 182.1240625 356.48726562 182.703125 356.73828125 C185.44019785 358.24180936 187.45795941 360.06699748 189.75 362.1875 C193.57681572 365.71383982 197.47011548 369.10743817 201.50390625 372.39453125 C203.32335687 374.34699654 203.79036831 375.33797695 204 378 C202.49291992 380.10644531 202.49291992 380.10644531 200.23046875 382.328125 C199.42416016 383.12734375 198.61785156 383.9265625 197.78710938 384.75 C196.92923828 385.575 196.07136719 386.4 195.1875 387.25 C194.34123047 388.09046875 193.49496094 388.9309375 192.62304688 389.796875 C186.29404677 396 186.29404677 396 184 396 C184 396.66 184 397.32 184 398 C182.70703125 399.26953125 182.70703125 399.26953125 180.8125 400.8125 C173.21703748 407.27269766 165.96682466 414.40430321 159.5 422 C152.72776514 429.9544205 145.10794511 437.29981743 137.16015625 444.06640625 C130.60887811 449.93057023 124.25479231 456.23388672 118.5625 462.9375 C111.46994702 471.27124976 103.46068124 479.02341938 95.125 486.1015625 C88.5582937 491.96814203 82.20907631 498.29432683 76.5 505 C70.29327935 512.29018809 63.36116033 519.23993067 56.0625 525.4375 C47.72875024 532.53005298 39.97658062 540.53931876 32.8984375 548.875 C26.32666635 556.23105659 19.17685518 563.19742842 11.6484375 569.56640625 C10.05178429 570.95496485 8.58845118 572.4106044 7.125 573.9375 C5 576 5 576 3 576 C3 576.66 3 577.32 3 578 C-3.00427353 580.73320678 -9.85037527 581.4702807 -16.171875 579.23046875 C-21.45764002 576.13982515 -25.86519693 571.64885383 -30.3203125 567.49609375 C-32.63339539 565.34148738 -34.98138589 563.25142764 -37.375 561.1875 C-40.38327042 558.5630007 -43.30442747 555.94828245 -46 553 C-46 552.34 -46 551.68 -46 551 C-46.66 551 -47.32 551 -48 551 C-49.41015625 549.6015625 -49.41015625 549.6015625 -51.0625 547.625 C-53.86551777 544.32457825 -56.7147866 541.08157904 -59.625 537.875 C-69 527.45833333 -69 527.45833333 -69 525 C-69.66 525 -70.32 525 -71 525 C-74 521.53846154 -74 521.53846154 -74 519 C-74.66 519 -75.32 519 -76 519 C-77.71475539 516.84609994 -79.30644878 514.69429308 -80.875 512.4375 C-81.52662109 511.52387695 -81.52662109 511.52387695 -82.19140625 510.59179688 C-85.06243844 506.51803499 -87.55204838 502.33932672 -90 498 C-91.38115839 495.8239493 -92.77745549 493.65744516 -94.1875 491.5 C-95.79781749 489.00392445 -97.40032447 486.50290695 -99 484 C-99.37318359 483.41718262 -99.74636719 482.83436523 -100.13085938 482.23388672 C-106.61786102 472.0182943 -111.8466243 461.33920125 -116.90576172 450.35595703 C-117.83309919 448.35934691 -118.78253443 446.37775299 -119.75390625 444.40234375 C-123.63632008 436.38409482 -126.47885786 428.1717927 -129.15087891 419.69189453 C-129.74914315 417.79526958 -130.35355817 415.90057938 -130.96240234 414.00732422 C-137.53329374 393.56350048 -142.46973572 373.33952844 -145.75 352.125 C-145.9107753 351.09848831 -145.9107753 351.09848831 -146.07479858 350.05123901 C-148.59878152 333.76519566 -149.18672225 317.6070395 -149.18530273 301.14770508 C-149.18748385 298.33334078 -149.20570831 295.5193734 -149.22460938 292.70507812 C-149.26372964 280.02561995 -148.43286725 267.59426182 -147 255 C-146.88487061 253.92516357 -146.76974121 252.85032715 -146.65112305 251.74291992 C-144.34131551 230.98557839 -140.12355272 210.19767879 -133.73339844 190.3046875 C-132.87456723 187.60583043 -132.05143574 184.8969249 -131.2265625 182.1875 C-125.13067257 162.38890937 -117.78376647 143.28007068 -108 125 C-107.66564941 124.3699707 -107.33129883 123.73994141 -106.98681641 123.09082031 C-101.08631336 112.05080846 -94.32019413 101.62244927 -87.42724609 91.18212891 C-85.63453939 88.44124411 -83.90940197 85.66077732 -82.1875 82.875 C-79.42081835 78.50691394 -76.34402159 74.49381179 -73.05859375 70.50390625 C-71.60883408 68.74053633 -70.18667343 66.95429441 -68.78515625 65.15234375 C-68.07230469 64.23582031 -67.35945313 63.31929687 -66.625 62.375 C-65.97789063 61.53710938 -65.33078125 60.69921875 -64.6640625 59.8359375 C-64.11492187 59.23007812 -63.56578125 58.62421875 -63 58 C-62.34 58 -61.68 58 -61 58 C-60.731875 57.41734375 -60.46375 56.8346875 -60.1875 56.234375 C-58.98519009 53.97213399 -57.66174087 52.19423682 -56 50.25 C-55.484375 49.63640625 -54.96875 49.0228125 -54.4375 48.390625 C-53 47 -53 47 -51 47 C-50.7525 46.43796875 -50.505 45.8759375 -50.25 45.296875 C-48.78725133 42.60907431 -47.03195127 40.53594518 -45 38.25 C-44.29875 37.45078125 -43.5975 36.6515625 -42.875 35.828125 C-41 34 -41 34 -39 34 C-38.67 33.01 -38.34 32.02 -38 31 C-37.34 31 -36.68 31 -36 31 C-36 30.34 -36 29.68 -36 29 C-34.26608049 27.39365985 -32.461909 25.8624713 -30.625 24.375 C-29.62726563 23.55773437 -28.62953125 22.74046875 -27.6015625 21.8984375 C-25 20 -25 20 -23 20 C-23 19.34 -23 18.68 -23 18 C-21.3203125 16.4921875 -21.3203125 16.4921875 -19.125 14.875 C-18.40570312 14.33617187 -17.68640625 13.79734375 -16.9453125 13.2421875 C-15 12 -15 12 -13 12 C-13 11.34 -13 10.68 -13 10 C-11.05127123 8.3981038 -9.10722061 6.90663524 -7.0625 5.4375 C-3.38299103 2.89247678 -3.38299103 2.89247678 0 0 Z " fill="#F13849" transform="translate(1976,674)"/>
<path d="M0 0 C2.8143643 -0.00218111 5.62833168 -0.02040557 8.44262695 -0.03930664 C43.71884132 -0.14813874 81.6361659 4.8261441 115.14770508 16.18530273 C115.9045459 16.4336084 116.66138672 16.68191406 117.44116211 16.93774414 C136.8583806 23.31908127 155.21993898 31.39313636 173.1784668 41.12963867 C175.72504349 42.49480079 178.30492451 43.78542119 180.89770508 45.06030273 C190.78792604 49.96285633 200.01075482 56.01168769 209.14770508 62.18530273 C208.57948008 65.85441271 207.20390909 67.43008508 204.52270508 69.93530273 C201.79966537 72.55212458 199.21895809 75.18304324 196.77270508 78.06030273 C191.40144349 84.28802973 185.59336445 90.09625523 179.36645508 95.46655273 C174.91510729 99.33372317 170.74204887 103.44338785 166.58520508 107.62280273 C165.86913086 108.33500977 165.15305664 109.0472168 164.4152832 109.78100586 C160.35011407 113.85357293 156.47816766 118.03054419 152.72167969 122.38867188 C150.64799611 124.7557011 148.4520554 126.97794242 146.21020508 129.18530273 C145.43805664 129.94842773 144.6659082 130.71155273 143.87036133 131.49780273 C143.30188477 132.05467773 142.7334082 132.61155273 142.14770508 133.18530273 C137.88270415 131.90391807 134.36887318 130.27180988 130.58520508 127.93530273 C108.41092578 114.77186888 81.71943716 104.80646681 56.28442383 100.55200195 C53.74356738 100.11594546 51.21212766 99.63661078 48.67895508 99.15795898 C29.40369958 95.57175369 10.72527746 94.88697114 -8.85229492 95.18530273 C-9.56289062 95.19255371 -10.27348633 95.19980469 -11.00561523 95.20727539 C-20.86646875 95.35792023 -30.51816816 96.97082543 -40.22729492 98.56030273 C-41.51200684 98.76937256 -42.79671875 98.97844238 -44.12036133 99.19384766 C-50.50208232 100.28125441 -56.59296692 101.51870828 -62.69067383 103.71899414 C-65.33953592 104.29041119 -67.2531925 103.86231273 -69.85229492 103.18530273 C-77.05390862 72.25392736 -81.67097656 41.02292192 -80.85229492 9.18530273 C-69.07710255 6.57255594 -57.30710074 4.07718746 -45.35229492 2.43530273 C-44.53164551 2.32017334 -43.71099609 2.20504395 -42.86547852 2.08642578 C-28.62591781 0.23329389 -14.33733935 -0.00123651 0 0 Z " fill="#EF2C51" transform="translate(2189.852294921875,604.814697265625)"/>
</svg>
